<svg xmlns="http://www.w3.org/2000/svg" width="20" height="20" viewBox="0 0 20 20"><rect width="20" height="20" fill="none"/><path d="M5.323,10.392c-.137.519-.274,1.064-.417,1.6a11.614,11.614,0,0,1-.468,1.539,7.792,7.792,0,0,1-1.336,2.2c-.375.416-.3.25-.408.227-.086-.017-.094-.1-.111-.214a11.4,11.4,0,0,1,.005-2.083,10.762,10.762,0,0,1,.384-2.165c.317-1.287.619-2.548.938-3.843.021-.086.079-.229.059-.278a3.868,3.868,0,0,1-.281-1.061A3.248,3.248,0,0,1,3.779,5.1,2.024,2.024,0,0,1,5.016,3.64a1.479,1.479,0,0,1,1.133.082,1.179,1.179,0,0,1,.567.777,2.671,2.671,0,0,1-.052,1.179c-.174.76-.4,1.331-.612,2.064a2.172,2.172,0,0,0-.124,1.13,1.315,1.315,0,0,0,.553.8,1.67,1.67,0,0,0,1.062.284,2.34,2.34,0,0,0,1.732-.979A5.617,5.617,0,0,0,10.37,6.05a6.935,6.935,0,0,0,.045-1.256A3.33,3.33,0,0,0,9.68,2.851,3.462,3.462,0,0,0,8.038,1.784,5.692,5.692,0,0,0,5.59,1.639a4.33,4.33,0,0,0-3.211,2.2,4.26,4.26,0,0,0-.547,2.127,2.668,2.668,0,0,0,.443,1.559c.087.126.215.23.3.373.121.2-.018.506-.078.726-.072.266-.079.631-.4.638a1.013,1.013,0,0,1-.417-.151A3.188,3.188,0,0,1,.093,6.782a5.323,5.323,0,0,1,0-2.019,5.623,5.623,0,0,1,.612-1.61A5.9,5.9,0,0,1,2.965.932,7.034,7.034,0,0,1,5.518.093C5.85.046,6.194.027,6.567.01a6.558,6.558,0,0,1,2.826.5,5.782,5.782,0,0,1,1.947,1.338,5,5,0,0,1,1.2,2.064A4.767,4.767,0,0,1,12.8,5.343a8.259,8.259,0,0,1-.2,1.477,5.779,5.779,0,0,1-2.508,4.027,4.644,4.644,0,0,1-2.611.682,3.118,3.118,0,0,1-1.3-.36A2.109,2.109,0,0,1,5.323,10.392Z" transform="translate(4.003 1.996)" fill="#FFF" fill-rule="evenodd"/></svg>
