<?xml version="1.0" encoding="UTF-8" standalone="no"?>
<svg
   xmlns:dc="http://purl.org/dc/elements/1.1/"
   xmlns:cc="http://creativecommons.org/ns#"
   xmlns:rdf="http://www.w3.org/1999/02/22-rdf-syntax-ns#"
   xmlns:svg="http://www.w3.org/2000/svg"
   xmlns="http://www.w3.org/2000/svg"
   xmlns:sodipodi="http://sodipodi.sourceforge.net/DTD/sodipodi-0.dtd"
   xmlns:inkscape="http://www.inkscape.org/namespaces/inkscape"
   width="496"
   height="160"
   viewBox="0 0 131.23333 42.333335"
   version="1.1"
   id="svg8"
   inkscape:version="1.0 (b51213c273, 2020-08-10)"
   sodipodi:docname="logo-CRUEL.svg">
  <defs
     id="defs2" />
  <sodipodi:namedview
     id="base"
     pagecolor="#ffffff"
     bordercolor="#666666"
     borderopacity="1.0"
     inkscape:pageopacity="0.0"
     inkscape:pageshadow="2"
     inkscape:zoom="3.959798"
     inkscape:cx="125.79408"
     inkscape:cy="221.29442"
     inkscape:document-units="mm"
     inkscape:current-layer="layer1"
     inkscape:document-rotation="0"
     showgrid="false"
     inkscape:snap-global="true"
     units="px"
     inkscape:window-width="1613"
     inkscape:window-height="995"
     inkscape:window-x="1433"
     inkscape:window-y="27"
     inkscape:window-maximized="1" />
  <metadata
     id="metadata5">
    <rdf:RDF>
      <cc:Work
         rdf:about="">
        <dc:format>image/svg+xml</dc:format>
        <dc:type
           rdf:resource="http://purl.org/dc/dcmitype/StillImage" />
        <dc:title></dc:title>
      </cc:Work>
    </rdf:RDF>
  </metadata>
  <g
     inkscape:label="Calque 1"
     inkscape:groupmode="layer"
     id="layer1">
    <path
       d="m 120.96357,42.278339 -3.31549,-4.13782 h -0.0278 v 2.82231 a 4.3391667,4.3391667 0 0 0 0.0246,0.52229 0.66939583,0.66939583 0 0 0 0.0976,0.29739 0.34395833,0.34395833 0 0 0 0.20955,0.1389 1.7933458,1.7933458 0 0 0 0.35931,0.0397 v 0.25109 h -1.87854 v -0.25109 a 1.9505083,1.9505083 0 0 0 0.39423,-0.0429 0.4270375,0.4270375 0 0 0 0.23389,-0.13546 0.55906458,0.55906458 0 0 0 0.11165,-0.28072 3.3866667,3.3866667 0 0 0 0.028,-0.492658 v -2.682875 a 3.5544125,3.5544125 0 0 0 -0.0246,-0.459582 0.65457917,0.65457917 0 0 0 -0.0979,-0.287337 0.38629167,0.38629167 0 0 0 -0.21167,-0.148696 1.5951729,1.5951729 0 0 0 -0.36301,-0.05609 v -0.251089 h 1.38218 l 3.05039,3.853656 h 0.0278 v -2.604294 a 4.3547771,4.3547771 0 0 0 -0.0246,-0.519112 0.67574583,0.67574583 0 0 0 -0.0976,-0.300567 0.34395833,0.34395833 0 0 0 -0.20955,-0.138906 1.7949333,1.7949333 0 0 0 -0.3593,-0.03969 V 37.1237 h 1.87854 v 0.251089 a 1.9510375,1.9510375 0 0 0 -0.39423,0.04286 0.42650833,0.42650833 0 0 0 -0.23389,0.135467 0.56171042,0.56171042 0 0 0 -0.11166,0.284162 3.3768771,3.3768771 0 0 0 -0.0265,0.489215 v 3.952606 z m -18.45495,0 -2.00316,-4.335993 h -0.0278 v 3.020748 a 3.8279917,3.8279917 0 0 0 0.0278,0.522285 0.64055625,0.64055625 0 0 0 0.10821,0.29739 0.37967708,0.37967708 0 0 0 0.23046,0.13891 2.1624396,2.1624396 0 0 0 0.39449,0.0397 v 0.25109 h -1.94733 v -0.25109 a 1.9486562,1.9486562 0 0 0 0.394229,-0.0429 0.4270375,0.4270375 0 0 0 0.233892,-0.13547 0.55747708,0.55747708 0 0 0 0.111649,-0.28072 3.3866667,3.3866667 0 0 0 0.028,-0.492654 v -2.683139 a 3.5544125,3.5544125 0 0 0 -0.0246,-0.459582 0.65801875,0.65801875 0 0 0 -0.09763,-0.287337 0.38787917,0.38787917 0 0 0 -0.212989,-0.148696 1.5951729,1.5951729 0 0 0 -0.362744,-0.05609 v -0.251089 h 1.66687 l 1.75895,3.906577 h 0.0278 l 1.81504,-3.906577 h 1.56343 v 0.251089 a 1.2665604,1.2665604 0 0 0 -0.35957,0.05292 0.396875,0.396875 0 0 0 -0.20929,0.155575 0.69241458,0.69241458 0 0 0 -0.0976,0.300567 4.0028812,4.0028812 0 0 0 -0.0243,0.489214 v 2.5908 a 3.8401625,3.8401625 0 0 0 0.0265,0.522292 0.64108542,0.64108542 0 0 0 0.10821,0.29739 0.37967708,0.37967708 0 0 0 0.23046,0.1389 2.1624396,2.1624396 0 0 0 0.39449,0.0397 v 0.25109 h -2.26166 v -0.25109 a 1.9515667,1.9515667 0 0 0 0.39449,-0.0429 0.4270375,0.4270375 0 0 0 0.2339,-0.13546 0.55959375,0.55959375 0 0 0 0.11165,-0.28073 3.3932812,3.3932812 0 0 0 0.0278,-0.49265 v -3.06705 h -0.0696 l -2.0373,4.33599 z m -17.219345,-0.17833 a 2.3034625,2.3034625 0 0 1 -0.809625,-0.50588 2.1695833,2.1695833 0 0 1 -0.513027,-0.7964 2.9223229,2.9223229 0 0 1 -0.178064,-1.044575 2.9683604,2.9683604 0 0 1 0.195262,-1.097227 2.505075,2.505075 0 0 1 0.547952,-0.852488 2.4304625,2.4304625 0 0 1 0.84455,-0.552185 2.9202062,2.9202062 0 0 1 1.084792,-0.194733 2.7029833,2.7029833 0 0 1 0.788988,0.112183 3.8552437,3.8552437 0 0 1 0.802481,0.363537 l 0.146579,-0.409839 h 0.24421 l -0.09075,1.520296 h -0.334962 a 1.1408833,1.1408833 0 0 0 -0.129381,-0.558536 1.1641667,1.1641667 0 0 0 -0.338403,-0.386556 1.4501812,1.4501812 0 0 0 -0.478102,-0.224896 2.0902083,2.0902083 0 0 0 -0.547952,-0.07276 1.7544521,1.7544521 0 0 0 -0.760677,0.15875 1.5419917,1.5419917 0 0 0 -0.565679,0.456141 2.1264563,2.1264563 0 0 0 -0.352425,0.727075 3.5599687,3.5599687 0 0 0 -0.122237,0.971815 2.524125,2.524125 0 0 0 0.467783,1.635918 1.6483542,1.6483542 0 0 0 1.354137,0.57176 2.181225,2.181225 0 0 0 0.600075,-0.0759 1.5094479,1.5094479 0 0 0 0.449792,-0.20478 0.90302292,0.90302292 0 0 0 0.279135,-0.29766 0.714375,0.714375 0 0 0 0.09419,-0.353482 0.65219792,0.65219792 0 0 0 -0.164042,-0.519113 0.83846458,0.83846458 0 0 0 -0.533929,-0.135466 v -0.250825 h 1.982259 v 0.250825 a 1.2274021,1.2274021 0 0 0 -0.279136,0.02646 0.34951458,0.34951458 0 0 0 -0.178064,0.09578 0.37041667,0.37041667 0 0 0 -0.09075,0.181769 1.3671021,1.3671021 0 0 0 -0.02461,0.284162 v 0.74083 c -0.08837,0 -0.168804,0.003 -0.241035,0.01 a 1.1226271,1.1226271 0 0 0 -0.226748,0.0463 2.4061208,2.4061208 0 0 0 -0.261938,0.0992 q -0.142875,0.0627 -0.338666,0.16854 a 2.3841604,2.3841604 0 0 1 -0.561711,0.21167 2.8712583,2.8712583 0 0 1 -0.694531,0.0794 3.01625,3.01625 0 0 1 -1.066006,-0.17886 z m -13.003477,0.17833 -3.315493,-4.13782 h -0.02778 v 2.82231 a 4.3391667,4.3391667 0 0 0 0.02461,0.52229 0.66622083,0.66622083 0 0 0 0.09763,0.29739 0.34237083,0.34237083 0 0 0 0.209285,0.1389 1.7991667,1.7991667 0 0 0 0.359834,0.0397 v 0.25109 h -1.878542 v -0.25109 a 1.9510375,1.9510375 0 0 0 0.394494,-0.0429 0.42545,0.42545 0 0 0 0.233627,-0.13546 0.55932917,0.55932917 0 0 0 0.111919,-0.28072 3.4308521,3.4308521 0 0 0 0.02778,-0.492658 v -2.682845 a 3.5427708,3.5427708 0 0 0 -0.02461,-0.459582 0.65140417,0.65140417 0 0 0 -0.09763,-0.287337 0.38629167,0.38629167 0 0 0 -0.211666,-0.148696 1.5951729,1.5951729 0 0 0 -0.363009,-0.05609 v -0.251089 h 1.382184 l 3.050116,3.853656 h 0.02805 v -2.604294 a 4.3547771,4.3547771 0 0 0 -0.02461,-0.519112 0.67812708,0.67812708 0 0 0 -0.09763,-0.300567 0.34395833,0.34395833 0 0 0 -0.20955,-0.138906 1.7962562,1.7962562 0 0 0 -0.359569,-0.03969 V 37.12373 h 1.878542 v 0.251089 a 1.9531542,1.9531542 0 0 0 -0.394494,0.04286 0.42677292,0.42677292 0 0 0 -0.233627,0.135467 0.56171042,0.56171042 0 0 0 -0.111654,0.284162 3.4086271,3.4086271 0 0 0 -0.02805,0.489215 v 3.952606 z m -18.775891,0 -2.003161,-4.335993 h -0.02778 v 3.020748 a 3.7967708,3.7967708 0 0 0 0.02778,0.522285 0.64055625,0.64055625 0 0 0 0.108215,0.29739 0.37967708,0.37967708 0 0 0 0.230452,0.13891 2.1619104,2.1619104 0 0 0 0.394229,0.0397 v 0.25109 h -1.947333 v -0.25109 a 1.9510375,1.9510375 0 0 0 0.394494,-0.0429 0.42545,0.42545 0 0 0 0.233627,-0.13547 0.55932917,0.55932917 0 0 0 0.111918,-0.28072 3.4308521,3.4308521 0 0 0 0.02778,-0.492654 v -2.683139 a 3.5427708,3.5427708 0 0 0 -0.02461,-0.459582 0.65140417,0.65140417 0 0 0 -0.09763,-0.287337 0.38629167,0.38629167 0 0 0 -0.211667,-0.148696 1.5951729,1.5951729 0 0 0 -0.363008,-0.05609 v -0.251089 h 1.668463 l 1.758685,3.906577 h 0.02805 l 1.814777,-3.906577 h 1.563423 v 0.251089 a 1.2647083,1.2647083 0 0 0 -0.359569,0.05292 0.39872708,0.39872708 0 0 0 -0.20955,0.155575 0.69664792,0.69664792 0 0 0 -0.09763,0.300567 3.9880646,3.9880646 0 0 0 -0.02461,0.489214 v 2.5908 a 3.8017979,3.8017979 0 0 0 0.02804,0.522292 0.63843958,0.63843958 0 0 0 0.108215,0.29739 0.37967708,0.37967708 0 0 0 0.230452,0.1389 2.1592646,2.1592646 0 0 0 0.394229,0.0397 v 0.25109 h -2.261385 v -0.25109 a 1.9515667,1.9515667 0 0 0 0.394493,-0.0429 0.42624375,0.42624375 0 0 0 0.233627,-0.13546 0.55985833,0.55985833 0 0 0 0.111919,-0.28073 3.4308521,3.4308521 0 0 0 0.02778,-0.49265 v -3.06705 h -0.06985 l -2.037291,4.33599 z m -19.083073,0 -3.315494,-4.13782 h -0.02778 v 2.82231 a 4.3523958,4.3523958 0 0 0 0.02461,0.52229 0.66939583,0.66939583 0 0 0 0.09763,0.29739 0.34395833,0.34395833 0 0 0 0.20955,0.1389 1.7933458,1.7933458 0 0 0 0.359304,0.0397 v 0.25109 h -1.878541 v -0.25109 a 1.9515667,1.9515667 0 0 0 0.394494,-0.0429 0.4270375,0.4270375 0 0 0 0.233891,-0.13546 0.561975,0.561975 0 0 0 0.111654,-0.28072 3.3866667,3.3866667 0 0 0 0.02805,-0.492658 v -2.682875 a 3.5896021,3.5896021 0 0 0 -0.02461,-0.459582 0.65801875,0.65801875 0 0 0 -0.09763,-0.287337 0.38787917,0.38787917 0 0 0 -0.21299,-0.148696 1.5941146,1.5941146 0 0 0 -0.363008,-0.05609 v -0.251089 h 1.382183 l 3.050381,3.853656 h 0.02778 v -2.604294 a 4.3685354,4.3685354 0 0 0 -0.02461,-0.519112 0.67574583,0.67574583 0 0 0 -0.09763,-0.300567 0.34395833,0.34395833 0 0 0 -0.20955,-0.138906 1.7949333,1.7949333 0 0 0 -0.359304,-0.03969 V 37.1237 h 1.878542 v 0.251089 a 1.9534187,1.9534187 0 0 0 -0.39423,0.04286 0.4270375,0.4270375 0 0 0 -0.233891,0.135467 0.56435625,0.56435625 0 0 0 -0.111654,0.284162 3.3991021,3.3991021 0 0 0 -0.02805,0.489215 v 3.952606 z m 91.702196,-0.0659 v -0.25109 a 2.0243271,2.0243271 0 0 0 0.47467,-0.0561 0.60245625,0.60245625 0 0 0 0.27569,-0.14552 0.4826,0.4826 0 0 0 0.12541,-0.24792 1.8089562,1.8089562 0 0 0 0.0315,-0.36354 v -3.536151 a 0.16721667,0.16721667 0 0 0 -0.0243,-0.09604 0.193675,0.193675 0 0 0 -0.0976,-0.06297 0.809625,0.809625 0 0 0 -0.20585,-0.03625 q -0.13229,-0.01005 -0.35613,-0.0098 -0.27199,0 -0.50615,0.01958 a 0.99112917,0.99112917 0 0 0 -0.40481,0.115623 0.70141042,0.70141042 0 0 0 -0.2757,0.294216 1.2408958,1.2408958 0 0 0 -0.11165,0.548746 h -0.25823 v -1.262591 h 5.2697 l 0.0699,1.262591 h -0.28601 a 1.6197792,1.6197792 0 0 0 -0.0979,-0.47625 0.69109167,0.69109167 0 0 0 -0.21987,-0.300567 0.89508542,0.89508542 0 0 0 -0.35956,-0.155575 2.5135417,2.5135417 0 0 0 -0.51647,-0.04604 q -0.25823,0 -0.4154,0.0098 a 1.0697104,1.0697104 0 0 0 -0.24077,0.03625 0.2032,0.2032 0 0 0 -0.10821,0.06297 0.16880417,0.16880417 0 0 0 -0.0246,0.09604 v 3.536158 a 1.8274771,1.8274771 0 0 0 0.0315,0.36354 0.48471667,0.48471667 0 0 0 0.12541,0.24791 0.60219167,0.60219167 0 0 0 0.27226,0.14552 1.9729979,1.9729979 0 0 0 0.47122,0.0561 v 0.25109 z m -16.99604,0 v -0.25109 a 2.1619104,2.1619104 0 0 0 0.39423,-0.0397 0.48551042,0.48551042 0 0 0 0.23389,-0.11219 0.40666458,0.40666458 0 0 0 0.11166,-0.22489 2.0574,2.0574 0 0 0 0.0278,-0.37677 v -3.080275 a 2.2883812,2.2883812 0 0 0 -0.0243,-0.373327 0.44476458,0.44476458 0 0 0 -0.0979,-0.224896 0.38126458,0.38126458 0 0 0 -0.21166,-0.112183 2.5135417,2.5135417 0 0 0 -0.36301,-0.04286 v -0.251059 h 4.03436 l 0.063,1.164166 h -0.24421 a 1.3051896,1.3051896 0 0 0 -0.13599,-0.433123 0.71834375,0.71834375 0 0 0 -0.25824,-0.267758 1.1472333,1.1472333 0 0 0 -0.41539,-0.138642 3.9793333,3.9793333 0 0 0 -0.60854,-0.03969 h -0.88636 q -0.11879,0 -0.11879,0.112183 v 1.897063 a 3.876675,3.876675 0 0 0 0.63182,-0.04286 1.1342687,1.1342687 0 0 0 0.40481,-0.135466 0.54266042,0.54266042 0 0 0 0.21643,-0.238125 0.82311875,0.82311875 0 0 0 0.0662,-0.343959 h 0.24421 v 1.804723 h -0.24421 a 0.91201875,0.91201875 0 0 0 -0.0593,-0.343958 0.51699583,0.51699583 0 0 0 -0.20955,-0.241036 1.1641667,1.1641667 0 0 0 -0.40481,-0.14552 3.4694812,3.4694812 0 0 0 -0.64558,-0.04974 v 1.493832 a 0.99351042,0.99351042 0 0 0 0.0558,0.3601 0.48180625,0.48180625 0 0 0 0.19183,0.23125 0.92260208,0.92260208 0 0 0 0.35956,0.12568 3.5091687,3.5091687 0 0 0 0.5514,0.0363 3.3901062,3.3901062 0 0 0 0.62812,-0.0495 1.1414125,1.1414125 0 0 0 0.43259,-0.16881 0.86862708,0.86862708 0 0 0 0.27914,-0.31379 2.0296187,2.0296187 0 0 0 0.17436,-0.485779 h 0.26458 l -0.10583,1.302279 z m -17.142612,0 v -0.25109 a 2.1592646,2.1592646 0 0 0 0.394229,-0.0397 0.48551042,0.48551042 0 0 0 0.233891,-0.11219 0.40375417,0.40375417 0 0 0 0.111655,-0.22489 2.0574,2.0574 0 0 0 0.02778,-0.37677 v -3.080275 a 2.2883812,2.2883812 0 0 0 -0.02434,-0.373327 0.44476458,0.44476458 0 0 0 -0.0979,-0.224896 0.38126458,0.38126458 0 0 0 -0.211666,-0.112183 2.5135417,2.5135417 0 0 0 -0.362744,-0.04286 v -0.251059 h 4.034367 l 0.06271,1.164166 h -0.244212 a 1.3051896,1.3051896 0 0 0 -0.135995,-0.433126 0.71834375,0.71834375 0 0 0 -0.258234,-0.267758 1.1472333,1.1472333 0 0 0 -0.415396,-0.138642 3.9769521,3.9769521 0 0 0 -0.608541,-0.03969 h -0.886354 q -0.118798,0 -0.118798,0.112183 v 1.897063 a 3.876675,3.876675 0 0 0 0.631825,-0.04286 1.1329458,1.1329458 0 0 0 0.404812,-0.135466 0.54266042,0.54266042 0 0 0 0.216429,-0.238125 0.82311875,0.82311875 0 0 0 0.06615,-0.343959 h 0.244211 v 1.804723 h -0.244211 a 0.91201875,0.91201875 0 0 0 -0.05927,-0.343958 0.51699583,0.51699583 0 0 0 -0.20955,-0.241036 1.1641667,1.1641667 0 0 0 -0.404812,-0.14552 3.4694812,3.4694812 0 0 0 -0.645583,-0.04974 v 1.493832 a 0.99351042,0.99351042 0 0 0 0.05583,0.3601 0.48180625,0.48180625 0 0 0 0.191823,0.23125 0.92260208,0.92260208 0 0 0 0.359568,0.12568 3.51155,3.51155 0 0 0 0.551392,0.0363 3.3901062,3.3901062 0 0 0 0.628121,-0.0495 1.1422062,1.1422062 0 0 0 0.432858,-0.16881 0.86995,0.86995 0 0 0 0.279136,-0.31379 2.0296187,2.0296187 0 0 0 0.17436,-0.485779 h 0.264583 l -0.105833,1.302279 z m -12.898967,0 v -0.25771 a 1.3342937,1.3342937 0 0 0 0.509587,-0.0662 0.22463125,0.22463125 0 0 0 0.1397,-0.21801 1.0088562,1.0088562 0 0 0 -0.0069,-0.12251 0.97049167,0.97049167 0 0 0 -0.02434,-0.12223 1.4967479,1.4967479 0 0 0 -0.04895,-0.1487 c -0.0209,-0.0553 -0.04762,-0.11985 -0.07937,-0.195 l -0.28628,-0.714371 h -1.863725 q -0.118533,0.270933 -0.202141,0.47916 -0.08361,0.208231 -0.136261,0.360361 a 2.0198292,2.0198292 0 0 0 -0.07329,0.25771 0.92604167,0.92604167 0 0 0 -0.0209,0.17171 0.26458333,0.26458333 0 0 0 0.125412,0.25453 0.92154375,0.92154375 0 0 0 0.418836,0.0693 v 0.25109 h -1.69598 v -0.25109 a 1.8155708,1.8155708 0 0 0 0.275696,-0.0529 0.7000875,0.7000875 0 0 0 0.202142,-0.0926 0.59028542,0.59028542 0 0 0 0.153458,-0.15531 1.4986,1.4986 0 0 0 0.129382,-0.23469 L 78.422264,37.1218 h 0.300302 l 1.584325,3.727979 q 0.160337,0.37042 0.279135,0.59161 a 1.4485937,1.4485937 0 0 0 0.230452,0.33364 0.52255208,0.52255208 0 0 0 0.240771,0.14552 1.2655021,1.2655021 0 0 0 0.310621,0.0331 v 0.2577 z m -1.521354,-2.174612 h 1.591204 l -0.7747,-1.94998 z m -14.546263,2.174612 v -0.25771 a 1.3342937,1.3342937 0 0 0 0.509588,-0.0662 0.22463125,0.22463125 0 0 0 0.1397,-0.21801 1.0226146,1.0226146 0 0 0 -0.0069,-0.12251 0.98319167,0.98319167 0 0 0 -0.02461,-0.12223 1.4967479,1.4967479 0 0 0 -0.04895,-0.1487 c -0.0209,-0.0553 -0.04763,-0.11985 -0.07937,-0.195 l -0.286279,-0.714371 h -1.863725 q -0.118798,0.270933 -0.202406,0.47916 -0.08361,0.208231 -0.135996,0.360361 a 2.0198292,2.0198292 0 0 0 -0.07329,0.25771 0.92604167,0.92604167 0 0 0 -0.0209,0.17171 0.26458333,0.26458333 0 0 0 0.125413,0.25453 0.92154375,0.92154375 0 0 0 0.418835,0.0693 v 0.25109 h -1.696243 v -0.25109 a 1.8131896,1.8131896 0 0 0 0.27596,-0.0529 0.69929375,0.69929375 0 0 0 0.202142,-0.0926 0.59134375,0.59134375 0 0 0 0.153723,-0.15531 1.5038917,1.5038917 0 0 0 0.129381,-0.23469 L 62.354644,37.1218 h 0.300302 l 1.584325,3.727979 q 0.160338,0.37042 0.279135,0.59161 a 1.4425083,1.4425083 0 0 0 0.230453,0.33364 0.52281667,0.52281667 0 0 0 0.24077,0.14552 1.2660312,1.2660312 0 0 0 0.310621,0.0331 v 0.2577 z M 61.50244,40.037847 h 1.591204 l -0.7747,-1.94998 z m -21.909881,2.174612 v -0.25109 a 2.0182417,2.0182417 0 0 0 0.474398,-0.0561 0.60219167,0.60219167 0 0 0 0.27596,-0.14552 0.48524583,0.48524583 0 0 0 0.125413,-0.24792 1.8137187,1.8137187 0 0 0 0.03149,-0.36354 v -3.536151 a 0.16880417,0.16880417 0 0 0 -0.02461,-0.09604 0.19341042,0.19341042 0 0 0 -0.09763,-0.06297 0.8112125,0.8112125 0 0 0 -0.205846,-0.03625 q -0.132292,-0.01005 -0.356129,-0.0098 -0.271992,0 -0.506148,0.01958 a 0.99086458,0.99086458 0 0 0 -0.404813,0.115623 0.70141042,0.70141042 0 0 0 -0.275696,0.294216 1.2416896,1.2416896 0 0 0 -0.111654,0.548746 h -0.258498 v -1.262591 h 5.269706 l 0.06985,1.262591 h -0.286279 a 1.6039042,1.6039042 0 0 0 -0.09763,-0.47625 0.68791667,0.68791667 0 0 0 -0.219869,-0.300567 0.89482083,0.89482083 0 0 0 -0.359304,-0.155575 2.5135417,2.5135417 0 0 0 -0.516467,-0.04604 q -0.258497,0 -0.415395,0.0098 a 1.0670646,1.0670646 0 0 0 -0.240771,0.03625 0.20293542,0.20293542 0 0 0 -0.108215,0.06297 0.16880417,0.16880417 0 0 0 -0.02461,0.09604 v 3.536158 a 1.8227146,1.8227146 0 0 0 0.03149,0.36354 0.48471667,0.48471667 0 0 0 0.125413,0.24791 0.60060417,0.60060417 0 0 0 0.272256,0.14552 1.9729979,1.9729979 0 0 0 0.471223,0.0561 v 0.25109 z m -16.996304,0 v -0.25109 a 2.1624396,2.1624396 0 0 0 0.394493,-0.0397 0.48603958,0.48603958 0 0 0 0.233892,-0.11219 0.40719375,0.40719375 0 0 0 0.111654,-0.22489 2.0574,2.0574 0 0 0 0.02778,-0.37677 v -3.080275 a 2.3180146,2.3180146 0 0 0 -0.02434,-0.373327 0.44476458,0.44476458 0 0 0 -0.0979,-0.224896 0.38126458,0.38126458 0 0 0 -0.211667,-0.112183 2.5111604,2.5111604 0 0 0 -0.363008,-0.04286 v -0.251079 h 4.034367 l 0.06297,1.164166 h -0.24421 a 1.3067771,1.3067771 0 0 0 -0.135996,-0.433123 0.71755,0.71755 0 0 0 -0.258498,-0.267758 1.1440583,1.1440583 0 0 0 -0.415131,-0.138642 3.9777458,3.9777458 0 0 0 -0.608542,-0.03969 h -0.886618 q -0.118534,0 -0.118534,0.112183 v 1.897063 a 3.8716479,3.8716479 0 0 0 0.631561,-0.04286 1.1345333,1.1345333 0 0 0 0.405077,-0.135466 0.54027917,0.54027917 0 0 0 0.216164,-0.238125 0.82020833,0.82020833 0 0 0 0.06641,-0.343959 h 0.24421 v 1.804723 h -0.24421 a 0.90699167,0.90699167 0 0 0 -0.05927,-0.343958 0.51699583,0.51699583 0 0 0 -0.20955,-0.241036 1.1641667,1.1641667 0 0 0 -0.404812,-0.14552 3.4694812,3.4694812 0 0 0 -0.645584,-0.04974 v 1.493832 a 0.98954167,0.98954167 0 0 0 0.05583,0.3601 0.48312917,0.48312917 0 0 0 0.191823,0.23125 0.92604167,0.92604167 0 0 0 0.359569,0.12568 3.5096979,3.5096979 0 0 0 0.551392,0.0363 3.3903708,3.3903708 0 0 0 0.628121,-0.0495 1.1414125,1.1414125 0 0 0 0.432593,-0.16881 0.87047917,0.87047917 0 0 0 0.2794,-0.31379 2.0372917,2.0372917 0 0 0 0.174361,-0.485779 h 0.264583 l -0.105833,1.302279 z m -7.307792,0 v -0.25109 a 2.1616458,2.1616458 0 0 0 0.394494,-0.0397 0.48339375,0.48339375 0 0 0 0.233627,-0.11219 0.40534167,0.40534167 0 0 0 0.111919,-0.22489 2.0806833,2.0806833 0 0 0 0.02778,-0.37677 v -3.080275 a 2.2841479,2.2841479 0 0 0 -0.02461,-0.373327 0.44238333,0.44238333 0 0 0 -0.09763,-0.224896 0.38152917,0.38152917 0 0 0 -0.211666,-0.112183 2.5135417,2.5135417 0 0 0 -0.363009,-0.04286 v -0.251079 h 2.121959 v 0.251089 a 1.7949333,1.7949333 0 0 0 -0.359305,0.03969 0.38391042,0.38391042 0 0 0 -0.20955,0.119062 0.47625,0.47625 0 0 0 -0.0979,0.238125 2.6873729,2.6873729 0 0 0 -0.02434,0.403225 v 2.848759 a 1.4364229,1.4364229 0 0 0 0.05927,0.45271 0.5127625,0.5127625 0 0 0 0.202406,0.27119 0.9350375,0.9350375 0 0 0 0.380206,0.1323 4.0864896,4.0864896 0 0 0 0.60034,0.0362 4.3777958,4.3777958 0 0 0 0.669925,-0.0429 1.2901083,1.2901083 0 0 0 0.457464,-0.15187 0.78872292,0.78872292 0 0 0 0.292894,-0.30428 2.0743333,2.0743333 0 0 0 0.185208,-0.505613 h 0.264584 l -0.105834,1.302283 z m -4.732338,0 v -0.25771 a 1.3345583,1.3345583 0 0 0 0.509588,-0.0662 0.22489583,0.22489583 0 0 0 0.1397,-0.21801 1.0220854,1.0220854 0 0 0 -0.0069,-0.12251 0.97128542,0.97128542 0 0 0 -0.02461,-0.12223 c -0.01164,-0.0442 -0.02805,-0.0937 -0.04895,-0.1487 -0.0209,-0.055 -0.04736,-0.11985 -0.07937,-0.195 l -0.28628,-0.714371 H 8.8956016 q -0.118798,0.270933 -0.202407,0.47916 -0.08361,0.208231 -0.135996,0.360361 a 2.0304125,2.0304125 0 0 0 -0.07329,0.25771 0.91360625,0.91360625 0 0 0 -0.02117,0.17171 0.26458333,0.26458333 0 0 0 0.125677,0.25453 0.92101458,0.92101458 0 0 0 0.418836,0.0693 v 0.25109 h -1.696243 v -0.25109 a 1.8076333,1.8076333 0 0 0 0.275696,-0.0529 0.69797083,0.69797083 0 0 0 0.202671,-0.0926 0.5921375,0.5921375 0 0 0 0.153458,-0.15531 1.5044208,1.5044208 0 0 0 0.129117,-0.23469 l 1.815044,-4.303129 h 0.3000374 l 1.584589,3.727979 q 0.160602,0.37042 0.2794,0.59161 a 1.4385396,1.4385396 0 0 0 0.230452,0.33364 0.5222875,0.5222875 0 0 0 0.240507,0.14552 1.2649729,1.2649729 0 0 0 0.310885,0.0331 v 0.2577 z M 9.0347716,40.037847 h 1.5912034 l -0.7746984,-1.94998 z m -7.531364,2.174612 v -0.25109 a 2.0227396,2.0227396 0 0 0 0.474662,-0.0561 0.60272083,0.60272083 0 0 0 0.275696,-0.14553 0.4826,0.4826 0 0 0 0.125413,-0.24791 1.8084271,1.8084271 0 0 0 0.03149,-0.36354 v -3.536153 a 0.17092083,0.17092083 0 0 0 -0.02434,-0.09604 0.19552708,0.19552708 0 0 0 -0.0979,-0.06297 0.80909583,0.80909583 0 0 0 -0.205846,-0.03625 q -0.132291,-0.01005 -0.355864,-0.0098 -0.272521,0 -0.506148,0.01958 a 0.99245208,0.99245208 0 0 0 -0.40507704,0.11563 0.701675,0.701675 0 0 0 -0.275696,0.294216 1.2435417,1.2435417 0 0 0 -0.111654,0.548746 h -0.258498 V 37.122657 H 5.4393516 l 0.06985,1.262591 h -0.286014 a 1.6015229,1.6015229 0 0 0 -0.0979,-0.47625 0.68923958,0.68923958 0 0 0 -0.219869,-0.300567 0.89482083,0.89482083 0 0 0 -0.359304,-0.155575 2.5135417,2.5135417 0 0 0 -0.516731,-0.04604 q -0.257969,0 -0.415396,0.0098 a 1.0670646,1.0670646 0 0 0 -0.240506,0.03625 0.20267083,0.20267083 0 0 0 -0.108215,0.06297 0.16880417,0.16880417 0 0 0 -0.02461,0.09604 v 3.53616 a 1.8280062,1.8280062 0 0 0 0.03149,0.36353 0.4826,0.4826 0 0 0 0.125677,0.24792 0.59795833,0.59795833 0 0 0 0.271992,0.14552 1.9745854,1.9745854 0 0 0 0.471223,0.0561 v 0.25109 z M 65.603217,30.291654 a 3.0998583,3.0998583 0 0 1 -0.558271,-1.911615 0.73686458,0.73686458 0 0 1 0.740834,-0.602191 0.7366,0.7366 0 0 1 0.740833,0.602191 3.1062083,3.1062083 0 0 1 -0.544513,1.911615 l -0.197379,0.297656 z m -0.09922,-1.852083 v 0.01984 a 2.1568833,2.1568833 0 0 0 0.282311,1.243542 2.1600583,2.1600583 0 0 0 0.282575,-1.263915 0.28310417,0.28310417 0 0 0 -0.28284,-0.228864 0.28204583,0.28204583 0 0 0 -0.282839,0.2286 z M 5.9571386,29.88155 a 3.1128229,3.1128229 0 0 1 -0.760412,-0.885825 1.5800917,1.5800917 0 0 0 -1.005417,-0.774436 0.55165625,0.55165625 0 0 1 0.216694,0.258234 0.55377292,0.55377292 0 0 1 -0.170657,0.608541 0.65748958,0.65748958 0 0 1 -0.478895,0.17198 0.70617292,0.70617292 0 0 1 -0.656167,-0.754592 0.83317292,0.83317292 0 0 1 0.295275,-0.561711 0.80936042,0.80936042 0 0 1 -0.288396,-0.523081 0.70485,0.70485 0 0 1 0.656167,-0.753798 0.64902292,0.64902292 0 0 1 0.478631,0.165365 0.55853542,0.55853542 0 0 1 0.170921,0.608542 0.54424792,0.54424792 0 0 1 -0.209815,0.258233 1.5475479,1.5475479 0 0 0 0.9906,-0.8001 3.0744583,3.0744583 0 0 1 0.787136,-0.939271 1.4861646,1.4861646 0 0 1 0.899583,-0.270933 1.6618479,1.6618479 0 0 1 0.498475,0.06615 1.3163021,1.3163021 0 0 1 0.899583,0.899583 0.52334583,0.52334583 0 0 1 0,0.09948 1.1231562,1.1231562 0 0 1 -0.236537,0.926042 c -0.01085,0.01614 -0.02196,0.03148 -0.03334,0.04657 H 56.109171 a 1.9954875,1.9954875 0 0 1 0.464609,-1.468438 2.1119042,2.1119042 0 0 1 2.113227,-0.859367 1.8153062,1.8153062 0 0 1 1.403614,1.402292 1.3895917,1.3895917 0 0 1 -0.281516,1.124479 1.4316604,1.4316604 0 0 1 -1.444096,0.595313 1.2324292,1.2324292 0 0 1 -0.964406,-0.958586 1.0181167,1.0181167 0 0 1 0.833702,-1.197239 l 0.09128,0.436298 a 0.5762625,0.5762625 0 0 0 -0.466196,0.661458 0.77919792,0.77919792 0 0 0 0.610129,0.608542 0.95673333,0.95673333 0 0 0 0.965465,-0.423334 0.95964375,0.95964375 0 0 0 0.196321,-0.774435 1.3610167,1.3610167 0 0 0 -1.049867,-1.05119 1.6195146,1.6195146 0 0 0 -1.633273,0.661459 1.6311562,1.6311562 0 0 0 -0.348456,1.322916 l 0.05292,0.139436 a 1.9729979,1.9729979 0 0 0 1.311539,1.322916 2.2418146,2.2418146 0 0 0 2.047346,-0.3302 l 0.06588,-0.04657 a 5.6401229,5.6401229 0 0 0 1.3716,-1.606815 3.5742562,3.5742562 0 0 1 3.024717,-1.984375 h 0.08546 a 1.508125,1.508125 0 0 1 0.9525,0.351102 1.3776854,1.3776854 0 0 1 0.284957,0.307975 1.3927667,1.3927667 0 0 1 0.292893,-0.321998 1.508125,1.508125 0 0 1 0.950648,-0.337079 h 0.105836 a 3.5665833,3.5665833 0 0 1 3.025245,1.984375 5.6581146,5.6581146 0 0 0 1.377686,1.574271 l 0.06588,0.04551 a 2.2399625,2.2399625 0 0 0 2.047081,0.363802 1.9362208,1.9362208 0 0 0 1.312863,-1.322916 l 0.04524,-0.191823 a 1.6512646,1.6512646 0 0 0 -0.340784,-1.322917 1.6348604,1.6348604 0 0 0 -1.640416,-0.661458 1.36525,1.36525 0 0 0 -1.050396,1.052248 0.95832083,0.95832083 0 0 0 0.197114,0.773377 0.9540875,0.9540875 0 0 0 0.964407,0.423333 0.777875,0.777875 0 0 0 0.610129,-0.608542 0.57441042,0.57441042 0 0 0 -0.465932,-0.661458 l 0.09208,-0.436562 a 1.031875,1.031875 0 0 1 0.840053,1.196975 1.2517437,1.2517437 0 0 1 -0.971286,0.959379 1.4377458,1.4377458 0 0 1 -1.443302,-0.595577 1.4176375,1.4176375 0 0 1 -0.28231,-1.124479 1.825625,1.825625 0 0 1 1.404673,-1.402292 2.124075,2.124075 0 0 1 2.119047,0.86016 2.0489333,2.0489333 0 0 1 0.451644,1.52109 h 48.06129 c -0.0122,-0.01508 -0.0243,-0.03043 -0.0352,-0.04657 a 1.1244792,1.1244792 0 0 1 -0.1852,-0.959114 0.76491042,0.76491042 0 0 1 0,-0.09896 1.317625,1.317625 0 0 1 0.89958,-0.86651 1.6599958,1.6599958 0 0 1 0.44503,-0.06615 1.4909271,1.4909271 0 0 1 0.91969,0.291042 3.1456312,3.1456312 0 0 1 0.76094,0.885825 1.5464896,1.5464896 0 0 0 0.99616,0.801158 0.52916667,0.52916667 0 0 1 -0.21537,-0.258233 0.5588,0.5588 0 0 1 0.1696,-0.608542 0.65907708,0.65907708 0 0 1 0.48021,-0.165364 0.7064375,0.7064375 0 0 1 0.65591,0.747712 0.8128,0.8128 0 0 1 -0.29528,0.562769 l -0.01,0.0077 a 0.83687708,0.83687708 0 0 1 0.27887,0.547158 0.70723125,0.70723125 0 0 1 -0.65723,0.754327 0.65484375,0.65484375 0 0 1 -0.4781,-0.171979 0.55059792,0.55059792 0 0 1 -0.17066,-0.608542 0.56779583,0.56779583 0 0 1 0.21008,-0.258233 1.5658042,1.5658042 0 0 0 -0.99086,0.8001 3.2014583,3.2014583 0 0 1 -0.75459,0.88609 h -0.0339 a 1.4578542,1.4578542 0 0 1 -1.31128,0.238125 1.3160375,1.3160375 0 0 1 -0.9525,-0.892969 0.51831875,0.51831875 0 0 1 0,-0.09922 1.1255375,1.1255375 0 0 1 0.23628,-0.926042 c 0.0119,-0.01799 0.0241,-0.03519 0.036,-0.05292 H 75.403384 a 2.4016229,2.4016229 0 0 1 -1.626129,1.580356 2.7556354,2.7556354 0 0 1 -2.487084,-0.436298 l -0.05847,-0.04657 a 6.0131854,6.0131854 0 0 1 -1.489604,-1.752335 3.1220833,3.1220833 0 0 0 -2.624402,-1.779058 1.0165292,1.0165292 0 0 0 -0.721783,0.224631 0.94641458,0.94641458 0 0 0 -0.361156,0.661458 0.75141667,0.75141667 0 0 0 0.687916,0.820209 0.561975,0.561975 0 0 0 0.419894,-0.152136 0.48339375,0.48339375 0 0 0 0.170656,-0.515408 0.40745833,0.40745833 0 0 0 -0.347398,-0.258233 l 0.03942,-0.443178 a 0.86465833,0.86465833 0 0 1 0.747713,0.549275 0.90408125,0.90408125 0 0 1 -0.282046,0.998803 1.0567458,1.0567458 0 0 1 -0.787665,0.277547 1.190625,1.190625 0 0 1 -0.891116,-0.496622 c -0.02355,0.03175 -0.04816,0.06218 -0.07488,0.09154 a 1.190625,1.190625 0 0 1 -0.831321,0.391319 1.0583333,1.0583333 0 0 1 -0.787665,-0.277812 0.904875,0.904875 0 0 1 -0.28231,-0.985044 0.86730417,0.86730417 0 0 1 0.79375,-0.555625 l 0.03916,0.443177 a 0.40851667,0.40851667 0 0 0 -0.347927,0.258233 0.48630417,0.48630417 0 0 0 0.170656,0.516202 0.56091667,0.56091667 0 0 0 0.433388,0.132292 0.752475,0.752475 0 0 0 0.656431,-0.79375 0.9525,0.9525 0 0 0 -0.360892,-0.661458 1.0218208,1.0218208 0 0 0 -0.728927,-0.211667 3.1485417,3.1485417 0 0 0 -2.624137,1.779058 5.997575,5.997575 0 0 1 -1.476904,1.686984 l -0.06562,0.05292 a 2.7551062,2.7551062 0 0 1 -2.46724,0.509588 2.4029458,2.4029458 0 0 1 -1.640416,-1.607079 H 8.0026326 c 0.01349,0.01693 0.02646,0.0344 0.03942,0.05292 a 1.1244792,1.1244792 0 0 1 0.185208,0.946415 0.63129583,0.63129583 0 0 1 0,0.09895 1.3178896,1.3178896 0 0 1 -0.899583,0.873125 1.4552083,1.4552083 0 0 1 -0.44794,0.07064 1.463675,1.463675 0 0 1 -0.923396,-0.332581 z m -0.347133,-2.764896 a 1.9235208,1.9235208 0 0 1 -0.824177,0.812535 1.927225,1.927225 0 0 1 0.856456,0.861748 2.4897292,2.4897292 0 0 0 0.656431,0.753534 0.98530833,0.98530833 0 0 0 0.905669,0.15875 0.85513333,0.85513333 0 0 0 0.59055,-0.589227 v -0.06535 a 0.66145833,0.66145833 0 0 0 -0.150813,-0.575736 0.69188542,0.69188542 0 0 0 -0.436562,-0.292894 1.1662833,1.1662833 0 0 1 -0.261938,-0.0026 0.55774167,0.55774167 0 0 0 -0.423333,0.427037 0.36195,0.36195 0 0 0 0.09128,0.331258 0.3556,0.3556 0 0 0 0.354277,0.172244 0.28389792,0.28389792 0 0 0 0.216694,-0.21881 0.1778,0.1778 0 0 0 -0.137583,-0.204788 l 0.08546,-0.437091 a 0.66145833,0.66145833 0 0 1 0.51144,0.727823 0.73739375,0.73739375 0 0 1 -0.570971,0.561975 0.83449583,0.83449583 0 0 1 -0.839523,-0.337343 0.79375,0.79375 0 0 1 -0.157162,-0.661459 1.0175875,1.0175875 0 0 1 0.348191,-0.573881 1.0109729,1.0109729 0 0 1 -0.36195,-0.582083 0.80750833,0.80750833 0 0 1 0.15875,-0.661459 0.83687708,0.83687708 0 0 1 0.839788,-0.337079 0.7445375,0.7445375 0 0 1 0.570971,0.56859 0.66145833,0.66145833 0 0 1 -0.512234,0.727604 l -0.0852,-0.442913 a 0.17197917,0.17197917 0 0 0 0.137848,-0.204787 0.27490208,0.27490208 0 0 0 -0.216694,-0.211667 0.35930417,0.35930417 0 0 0 -0.354277,0.1651 0.36538958,0.36538958 0 0 0 -0.07937,0.297656 0.5588,0.5588 0 0 0 0.432594,0.455878 h 0.0034 a 1.1625792,1.1625792 0 0 1 0.186796,-0.0077 v -0.0058 h 0.08731 a 0.70246875,0.70246875 0 0 0 0.411162,-0.291042 0.66383958,0.66383958 0 0 0 0.150813,-0.569648 v -0.07197 a 0.8683625,0.8683625 0 0 0 -0.59055,-0.588698 1.0014479,1.0014479 0 0 0 -0.905669,0.165364 h -0.03228 a 2.5095729,2.5095729 0 0 0 -0.656696,0.74639 z m 118.3195444,1.34276 a 0.66542708,0.66542708 0 0 0 -0.15081,0.575998 v 0.06588 a 0.85354583,0.85354583 0 0 0 0.59055,0.588433 0.99192292,0.99192292 0 0 0 0.90567,-0.15875 h 0.0328 a 2.6564167,2.6564167 0 0 0 0.65616,-0.747713 1.9280187,1.9280187 0 0 1 0.84191,-0.848783 1.9314583,1.9314583 0 0 1 -0.85514,-0.8509 2.5627542,2.5627542 0 0 0 -0.65616,-0.753798 1.0133542,1.0133542 0 0 0 -0.90541,-0.166158 0.873125,0.873125 0 0 0 -0.59055,0.589227 v 0.0725 a 0.65960625,0.65960625 0 0 0 0.15108,0.568589 0.70246875,0.70246875 0 0 0 0.46487,0.299244 1.1414125,1.1414125 0 0 1 0.20214,0.0026 0.56012292,0.56012292 0 0 0 0.42334,-0.433388 0.37041667,0.37041667 0 0 0 -0.0794,-0.297656 0.36221458,0.36221458 0 0 0 -0.35533,-0.166158 0.27834167,0.27834167 0 0 0 -0.21537,0.211667 0.17197917,0.17197917 0 0 0 0.14446,0.205845 l -0.0929,0.442648 a 0.66145833,0.66145833 0 0 1 -0.51091,-0.727604 0.74347917,0.74347917 0 0 1 0.56991,-0.568589 0.83872917,0.83872917 0 0 1 0.84111,0.337079 0.81174167,0.81174167 0 0 1 0.15743,0.661458 1.0210271,1.0210271 0 0 1 -0.34899,0.570706 1.0212917,1.0212917 0 0 1 0.32915,0.560652 0.79375,0.79375 0 0 1 -0.15875,0.661459 0.835025,0.835025 0 0 1 -0.83979,0.337079 0.73898125,0.73898125 0 0 1 -0.57071,-0.562769 0.663575,0.663575 0 0 1 0.51276,-0.727604 l 0.0841,0.437092 a 0.17700625,0.17700625 0 0 0 -0.13679,0.204523 0.28231042,0.28231042 0 0 0 0.21537,0.21881 0.35586458,0.35586458 0 0 0 0.35534,-0.172244 0.36062708,0.36062708 0 0 0 0.0794,-0.297656 0.56250417,0.56250417 0 0 0 -0.43418,-0.430213 h -0.0151 a 1.1496146,1.1496146 0 0 1 -0.14102,0.0034 v 0.005 h -0.0529 a 0.69638333,0.69638333 0 0 0 -0.4482,0.289719 z m 3.74015,0.09313 a 0.10424583,0.10424583 0 0 0 -0.0733,0.05292 0.13361458,0.13361458 0 0 0 0.0603,0.139436 0.1539875,0.1539875 0 0 0 0.10583,0.04657 h 0.006 a 0.25823333,0.25823333 0 0 0 0.23812,-0.278077 0.37041667,0.37041667 0 0 0 -0.13785,-0.257704 0.40692917,0.40692917 0 0 0 -0.23045,-0.08625 z M 3.7124136,28.254891 a 0.36856458,0.36856458 0 0 0 -0.137583,0.257705 0.25743958,0.25743958 0 0 0 0.236008,0.278077 0.15478125,0.15478125 0 0 0 0.105833,-0.04657 0.13229167,0.13229167 0 0 0 0.05953,-0.139435 0.10583333,0.10583333 0 0 0 -0.03307,-0.05292 v -0.38364 a 0.4048125,0.4048125 0 0 0 -0.230716,0.08625 z M 127.65568,27.150256 a 0.238125,0.238125 0 0 0 -0.0603,0.138377 0.08175625,0.08175625 0 0 0 0.0733,0.05292 l -0.0339,0.383646 a 0.37279792,0.37279792 0 0 0 0.23045,-0.08599 0.36697708,0.36697708 0 0 0 0.13785,-0.258233 0.25108958,0.25108958 0 0 0 -0.23813,-0.271198 h -0.0114 a 0.142875,0.142875 0 0 0 -0.0979,0.03995 z M 3.8042236,27.110306 a 0.25108958,0.25108958 0 0 0 -0.236272,0.271198 0.365125,0.365125 0 0 0 0.137583,0.258233 0.37041667,0.37041667 0 0 0 0.229658,0.08599 l -0.03254,-0.383646 a 0.079375,0.079375 0 0 0 0.0725,-0.05292 c 0.01296,-0.03969 -0.0066,-0.08625 -0.05953,-0.138377 a 0.15531042,0.15531042 0 0 0 -0.10451,-0.03995 z m -3.33375004,1.01891 -0.302154,-0.185208 0.302154,-0.179123 a 3.7980937,3.7980937 0 0 1 1.69941904,-0.555625 1.3432896,1.3432896 0 0 1 0.268817,0.01958 0.72204792,0.72204792 0 0 1 0,1.42875 q -0.07937,0.0037 -0.156633,0.0037 A 3.3514771,3.3514771 0 0 1 0.47100356,28.128687 Z M 1.0739886,27.944008 a 2.3479125,2.3479125 0 0 0 1.312863,0.277019 0.2778125,0.2778125 0 0 0 0,-0.555625 q -0.08864,-0.0066 -0.177271,-0.0066 a 2.4148521,2.4148521 0 0 0 -1.135063,0.284677 z M 129.15031,28.638539 a 0.72204792,0.72204792 0 0 1 0,-1.42875 1.3210646,1.3210646 0 0 1 0.28231,0 3.8055021,3.8055021 0 0 1 1.66688,0.549011 l 0.30188,0.185208 -0.28231,0.1651 a 3.3541229,3.3541229 0 0 1 -1.81345,0.532871 q -0.0767,0 -0.15478,-0.004 z m 0.0929,-0.966258 a 0.2778125,0.2778125 0 0 0 0,0.555625 2.3037271,2.3037271 0 0 0 1.31233,-0.277813 2.3831021,2.3831021 0 0 0 -1.12871,-0.284956 q -0.0913,-0.0026 -0.18309,0.0066 z M 63.891098,16.741283 Q 62.139292,14.652662 62.139557,11.037396 V 0.32177027 H 63.34738 V 11.037396 q 0,6.722004 5.830093,6.722268 5.830094,2.65e-4 5.830888,-6.722268 V 0.32177027 h 1.215496 V 11.037396 q 0,3.639873 -1.738842,5.716587 -1.738842,2.076715 -5.291667,2.076186 -3.546739,0 -5.302779,-2.089415 z M 28.778244,16.115014 A 8.9138125,8.9138125 0 0 1 25.947203,9.4165581 q 0,-3.9830378 2.470679,-6.6939578 2.474912,-2.70721703 6.323541,-2.70668803 a 19.556677,19.556677 0 0 1 6.126163,1.01864603 l -0.330994,1.018381 a 19.858302,19.858302 0 0 0 -5.794375,-0.921279 6.8214875,6.8214875 0 0 0 -5.386652,2.395802 q -2.090208,2.391304 -2.09206,5.8499378 a 8.0303687,8.0303687 0 0 0 2.43152,5.8941229 7.9549625,7.9549625 0 0 0 5.835121,2.427816 q 2.979738,0 5.1308,-0.908314 l 0.379942,0.86016 A 8.2084333,8.2084333 0 0 1 38.5374,18.520077 15.213542,15.213542 0 0 1 35.530146,18.830962 9.4093771,9.4093771 0 0 1 28.77745,16.114485 Z m 28.834556,2.13704 a 5.9168771,5.9168771 0 0 1 -1.827477,-1.361281 q -0.868098,-0.919956 -4.324085,-5.704946 -2.47015,0 -4.478073,-0.148431 v 7.481887 H 45.766082 V 0.39929327 q 2.4003,-0.173037 4.011612,-0.185208 2.566459,0 4.230688,1.34223103 1.659466,1.33985 1.659731,3.777456 a 5.4591479,5.4591479 0 0 1 -0.9525,3.0823958 8.3928479,8.3928479 0 0 1 -2.147094,2.2621879 q 0.935831,1.293548 2.306902,3.087158 1.371071,1.793611 1.776148,2.25769 1.540404,1.652323 3.482711,1.887008 L 60.111,18.71825 A 6.2685083,6.2685083 0 0 1 57.612275,18.25126 Z M 46.983165,1.4174103 v 8.6254167 q 2.019565,0.126735 3.754702,0.126206 1.104636,0 2.366963,-1.4747879 a 5.1014312,5.1014312 0 0 0 1.259945,-3.4226498 q 0,-1.950773 -1.298839,-2.953543 -1.296458,-0.996686 -3.435615,-0.998009 -1.13321,0 -2.647685,0.0971 z M 96.131636,18.519283 V 0.32203527 h 1.217083 V 17.40036 h 8.277221 v 1.118923 z m -13.472848,0 V 0.32203527 h 8.366125 V 1.3930683 h -7.14666 v 6.6868148 h 6.470914 v 1.041664 h -6.470914 v 8.3272319 h 7.430293 v 1.070769 z"
       fill="#161616"
       id="path833"
       style="fill:#ba925e;fill-opacity:1;stroke-width:0.264583" />
  </g>
</svg>
