<?xml version="1.0" encoding="UTF-8" standalone="no"?>
<svg
   xmlns:dc="http://purl.org/dc/elements/1.1/"
   xmlns:cc="http://creativecommons.org/ns#"
   xmlns:rdf="http://www.w3.org/1999/02/22-rdf-syntax-ns#"
   xmlns:svg="http://www.w3.org/2000/svg"
   xmlns="http://www.w3.org/2000/svg"
   xmlns:sodipodi="http://sodipodi.sourceforge.net/DTD/sodipodi-0.dtd"
   xmlns:inkscape="http://www.inkscape.org/namespaces/inkscape"
   width="312"
   height="24"
   viewBox="0 0 82.550003 6.3500002"
   version="1.1"
   id="svg8"
   inkscape:version="1.0 (b51213c273, 2020-08-10)"
   sodipodi:docname="logo-CRUEL-txt-white.svg">
  <defs
     id="defs2" />
  <sodipodi:namedview
     id="base"
     pagecolor="#ffffff"
     bordercolor="#666666"
     borderopacity="1.0"
     inkscape:pageopacity="0.0"
     inkscape:pageshadow="2"
     inkscape:zoom="3.959798"
     inkscape:cx="40.921884"
     inkscape:cy="25.890357"
     inkscape:document-units="mm"
     inkscape:current-layer="layer1"
     inkscape:document-rotation="0"
     showgrid="false"
     inkscape:window-width="1613"
     inkscape:window-height="995"
     inkscape:window-x="1433"
     inkscape:window-y="27"
     inkscape:window-maximized="1"
     units="px" />
  <metadata
     id="metadata5">
    <rdf:RDF>
      <cc:Work
         rdf:about="">
        <dc:format>image/svg+xml</dc:format>
        <dc:type
           rdf:resource="http://purl.org/dc/dcmitype/StillImage" />
        <dc:title></dc:title>
      </cc:Work>
    </rdf:RDF>
  </metadata>
  <g
     inkscape:label="Calque 1"
     inkscape:groupmode="layer"
     id="layer1">
    <g
       id="g847"
       transform="matrix(0.26458333,0,0,0.26458333,0.020819,0.01036415)"
       style="fill:#ababab;fill-opacity:1">
      <path
         d="m -215.175,-16.685 h -0.44 a 2.454,2.454 0 0 0 -0.15,-0.729 1.058,1.058 0 0 0 -0.338,-0.461 1.377,1.377 0 0 0 -0.553,-0.238 3.868,3.868 0 0 0 -0.795,-0.071 q -0.4,0 -0.639,0.015 a 1.651,1.651 0 0 0 -0.371,0.056 0.311,0.311 0 0 0 -0.166,0.1 0.258,0.258 0 0 0 -0.038,0.147 v 5.418 a 2.778,2.778 0 0 0 0.048,0.557 0.74,0.74 0 0 0 0.193,0.38 0.923,0.923 0 0 0 0.419,0.223 3.06,3.06 0 0 0 0.725,0.086 v 0.385 h -4.06 v -0.385 a 3.136,3.136 0 0 0 0.73,-0.086 0.926,0.926 0 0 0 0.424,-0.223 0.74,0.74 0 0 0 0.193,-0.38 2.781,2.781 0 0 0 0.048,-0.557 v -5.418 a 0.258,0.258 0 0 0 -0.038,-0.147 0.3,0.3 0 0 0 -0.15,-0.1 1.253,1.253 0 0 0 -0.317,-0.056 q -0.2,-0.015 -0.548,-0.015 -0.419,0 -0.779,0.03 a 1.529,1.529 0 0 0 -0.623,0.177 1.075,1.075 0 0 0 -0.424,0.451 1.9,1.9 0 0 0 -0.172,0.841 h -0.4 v -1.934 h 8.11 z m 8.077,3.038 h -2.868 q -0.183,0.415 -0.311,0.734 -0.128,0.319 -0.209,0.552 a 3.094,3.094 0 0 0 -0.113,0.395 1.41,1.41 0 0 0 -0.032,0.263 0.405,0.405 0 0 0 0.193,0.39 1.424,1.424 0 0 0 0.644,0.106 v 0.385 h -2.61 v -0.385 a 2.816,2.816 0 0 0 0.424,-0.081 1.077,1.077 0 0 0 0.311,-0.142 0.913,0.913 0 0 0 0.236,-0.238 2.3,2.3 0 0 0 0.2,-0.359 l 2.793,-6.592 h 0.462 l 2.438,5.711 q 0.247,0.567 0.43,0.906 a 2.224,2.224 0 0 0 0.355,0.511 0.805,0.805 0 0 0 0.371,0.223 1.959,1.959 0 0 0 0.478,0.051 v 0.395 h -3.5 v -0.395 a 2.065,2.065 0 0 0 0.784,-0.1 0.345,0.345 0 0 0 0.215,-0.334 1.516,1.516 0 0 0 -0.011,-0.187 1.424,1.424 0 0 0 -0.038,-0.187 2.3,2.3 0 0 0 -0.075,-0.228 q -0.048,-0.127 -0.124,-0.3 z m -2.653,-0.506 h 2.449 l -1.192,-2.987 z m 16.563,3.332 h -6.939 v -0.385 a 3.359,3.359 0 0 0 0.607,-0.061 0.746,0.746 0 0 0 0.36,-0.172 0.619,0.619 0 0 0 0.172,-0.344 3.149,3.149 0 0 0 0.043,-0.577 v -4.719 a 3.492,3.492 0 0 0 -0.038,-0.572 0.679,0.679 0 0 0 -0.15,-0.344 0.587,0.587 0 0 0 -0.328,-0.172 3.888,3.888 0 0 0 -0.559,-0.066 v -0.385 h 3.265 v 0.385 a 2.788,2.788 0 0 0 -0.553,0.061 0.593,0.593 0 0 0 -0.322,0.182 0.728,0.728 0 0 0 -0.15,0.365 4.039,4.039 0 0 0 -0.038,0.618 v 4.365 a 2.2,2.2 0 0 0 0.091,0.694 0.787,0.787 0 0 0 0.312,0.415 1.443,1.443 0 0 0 0.585,0.2 6.31,6.31 0 0 0 0.924,0.056 6.8,6.8 0 0 0 1.031,-0.066 2,2 0 0 0 0.7,-0.233 1.214,1.214 0 0 0 0.451,-0.466 3.185,3.185 0 0 0 0.285,-0.775 h 0.408 z m 6.617,-4.284 a 6.013,6.013 0 0 0 0.972,-0.066 1.752,1.752 0 0 0 0.623,-0.208 0.831,0.831 0 0 0 0.333,-0.365 1.255,1.255 0 0 0 0.1,-0.527 h 0.376 v 2.771 h -0.376 a 1.384,1.384 0 0 0 -0.091,-0.527 0.793,0.793 0 0 0 -0.322,-0.37 1.808,1.808 0 0 0 -0.623,-0.223 5.37,5.37 0 0 0 -0.994,-0.076 v 2.289 a 1.518,1.518 0 0 0 0.086,0.552 0.743,0.743 0 0 0 0.3,0.354 1.427,1.427 0 0 0 0.553,0.192 5.429,5.429 0 0 0 0.849,0.056 5.245,5.245 0 0 0 0.967,-0.076 1.763,1.763 0 0 0 0.666,-0.258 1.338,1.338 0 0 0 0.43,-0.481 3.113,3.113 0 0 0 0.269,-0.744 h 0.408 l -0.161,1.995 h -6.67 v -0.385 a 3.36,3.36 0 0 0 0.607,-0.061 0.746,0.746 0 0 0 0.36,-0.172 0.619,0.619 0 0 0 0.172,-0.344 3.149,3.149 0 0 0 0.043,-0.577 v -4.719 a 3.492,3.492 0 0 0 -0.038,-0.572 0.68,0.68 0 0 0 -0.15,-0.344 0.587,0.587 0 0 0 -0.328,-0.172 3.888,3.888 0 0 0 -0.559,-0.066 v -0.385 h 6.208 l 0.1,1.782 h -0.376 a 2,2 0 0 0 -0.209,-0.663 1.1,1.1 0 0 0 -0.4,-0.41 1.767,1.767 0 0 0 -0.639,-0.213 6.135,6.135 0 0 0 -0.934,-0.061 h -1.364 q -0.183,0 -0.183,0.172 z m 15.9,4.385 -5.1,-6.339 h -0.043 v 4.324 a 6.638,6.638 0 0 0 0.038,0.8 1.025,1.025 0 0 0 0.15,0.456 0.528,0.528 0 0 0 0.322,0.213 2.789,2.789 0 0 0 0.553,0.061 v 0.385 h -2.889 v -0.385 a 3.025,3.025 0 0 0 0.607,-0.066 0.658,0.658 0 0 0 0.36,-0.208 0.856,0.856 0 0 0 0.172,-0.43 5.2,5.2 0 0 0 0.043,-0.754 v -4.111 a 5.424,5.424 0 0 0 -0.038,-0.7 1,1 0 0 0 -0.15,-0.441 0.6,0.6 0 0 0 -0.328,-0.228 2.449,2.449 0 0 0 -0.559,-0.086 v -0.385 h 2.127 l 4.694,5.9 h 0.043 V -16.7 a 6.66,6.66 0 0 0 -0.038,-0.795 1.033,1.033 0 0 0 -0.15,-0.461 0.528,0.528 0 0 0 -0.322,-0.213 2.788,2.788 0 0 0 -0.553,-0.061 v -0.385 h 2.889 v 0.385 a 3.026,3.026 0 0 0 -0.607,0.066 0.658,0.658 0 0 0 -0.36,0.208 0.863,0.863 0 0 0 -0.172,0.435 5.214,5.214 0 0 0 -0.043,0.749 v 6.056 z m 14.114,-5.965 H -157 a 2.455,2.455 0 0 0 -0.15,-0.729 1.058,1.058 0 0 0 -0.338,-0.461 1.377,1.377 0 0 0 -0.553,-0.238 3.868,3.868 0 0 0 -0.795,-0.071 q -0.4,0 -0.639,0.015 a 1.65,1.65 0 0 0 -0.371,0.056 0.311,0.311 0 0 0 -0.166,0.1 0.258,0.258 0 0 0 -0.038,0.147 v 5.418 a 2.779,2.779 0 0 0 0.048,0.557 0.74,0.74 0 0 0 0.193,0.38 0.923,0.923 0 0 0 0.419,0.223 3.06,3.06 0 0 0 0.725,0.086 v 0.385 h -4.06 v -0.385 a 3.136,3.136 0 0 0 0.73,-0.086 0.926,0.926 0 0 0 0.424,-0.223 0.74,0.74 0 0 0 0.193,-0.38 2.779,2.779 0 0 0 0.048,-0.557 v -5.418 a 0.258,0.258 0 0 0 -0.038,-0.147 0.3,0.3 0 0 0 -0.15,-0.1 1.253,1.253 0 0 0 -0.317,-0.056 q -0.2,-0.015 -0.548,-0.015 -0.419,0 -0.779,0.03 a 1.529,1.529 0 0 0 -0.623,0.177 1.075,1.075 0 0 0 -0.424,0.451 1.9,1.9 0 0 0 -0.172,0.841 h -0.4 v -1.934 h 8.11 z m 15.725,4.051 2.793,-5.985 h 2.406 v 0.385 a 1.95,1.95 0 0 0 -0.553,0.081 0.611,0.611 0 0 0 -0.322,0.238 1.064,1.064 0 0 0 -0.15,0.461 6.1,6.1 0 0 0 -0.038,0.749 v 3.97 a 5.815,5.815 0 0 0 0.043,0.8 0.98,0.98 0 0 0 0.166,0.456 0.584,0.584 0 0 0 0.354,0.213 3.359,3.359 0 0 0 0.607,0.061 v 0.385 h -3.48 v -0.385 a 3.025,3.025 0 0 0 0.607,-0.066 0.658,0.658 0 0 0 0.36,-0.208 0.856,0.856 0 0 0 0.172,-0.43 5.2,5.2 0 0 0 0.043,-0.754 v -4.7 h -0.107 l -3.136,6.643 h -0.236 l -3.083,-6.643 h -0.043 v 4.628 a 5.81,5.81 0 0 0 0.043,0.8 0.98,0.98 0 0 0 0.166,0.456 0.585,0.585 0 0 0 0.354,0.213 3.359,3.359 0 0 0 0.607,0.061 v 0.385 h -3 v -0.385 a 3.025,3.025 0 0 0 0.607,-0.066 0.658,0.658 0 0 0 0.36,-0.208 0.856,0.856 0 0 0 0.172,-0.43 5.2,5.2 0 0 0 0.043,-0.754 v -4.111 a 5.421,5.421 0 0 0 -0.038,-0.7 1,1 0 0 0 -0.15,-0.441 0.6,0.6 0 0 0 -0.328,-0.228 2.449,2.449 0 0 0 -0.559,-0.086 v -0.385 h 2.567 l 2.707,5.985 z m 14.479,-1.013 h -2.868 q -0.183,0.415 -0.311,0.734 -0.128,0.319 -0.209,0.552 a 3.09,3.09 0 0 0 -0.113,0.395 1.412,1.412 0 0 0 -0.032,0.263 0.405,0.405 0 0 0 0.193,0.39 1.424,1.424 0 0 0 0.644,0.106 v 0.385 h -2.61 v -0.385 a 2.816,2.816 0 0 0 0.424,-0.081 1.077,1.077 0 0 0 0.311,-0.142 0.913,0.913 0 0 0 0.236,-0.238 2.3,2.3 0 0 0 0.2,-0.359 l 2.793,-6.592 h 0.462 l 2.438,5.711 q 0.247,0.567 0.43,0.906 a 2.224,2.224 0 0 0 0.354,0.511 0.805,0.805 0 0 0 0.371,0.223 1.959,1.959 0 0 0 0.478,0.051 v 0.395 h -3.5 v -0.395 a 2.065,2.065 0 0 0 0.784,-0.1 0.345,0.345 0 0 0 0.215,-0.334 1.522,1.522 0 0 0 -0.011,-0.187 1.43,1.43 0 0 0 -0.038,-0.187 2.307,2.307 0 0 0 -0.075,-0.228 q -0.048,-0.127 -0.124,-0.3 z m -2.653,-0.506 h 2.449 l -1.192,-2.987 z m 16.6,3.433 -5.1,-6.339 h -0.043 v 4.324 a 6.636,6.636 0 0 0 0.038,0.8 1.025,1.025 0 0 0 0.15,0.456 0.528,0.528 0 0 0 0.322,0.213 2.788,2.788 0 0 0 0.553,0.061 v 0.385 h -2.889 v -0.385 a 3.025,3.025 0 0 0 0.607,-0.066 0.658,0.658 0 0 0 0.36,-0.208 0.856,0.856 0 0 0 0.172,-0.43 5.2,5.2 0 0 0 0.043,-0.754 v -4.111 a 5.422,5.422 0 0 0 -0.038,-0.7 1,1 0 0 0 -0.15,-0.441 0.6,0.6 0 0 0 -0.328,-0.228 2.449,2.449 0 0 0 -0.559,-0.086 v -0.385 h 2.127 l 4.694,5.9 h 0.043 V -16.7 a 6.657,6.657 0 0 0 -0.038,-0.795 1.033,1.033 0 0 0 -0.15,-0.461 0.528,0.528 0 0 0 -0.322,-0.213 2.788,2.788 0 0 0 -0.553,-0.061 v -0.385 h 2.889 v 0.385 a 3.026,3.026 0 0 0 -0.607,0.066 0.658,0.658 0 0 0 -0.36,0.208 0.863,0.863 0 0 0 -0.172,0.435 5.212,5.212 0 0 0 -0.043,0.749 v 6.056 z m 10.784,-2.927 h -2.878 q -0.183,0.415 -0.312,0.734 -0.129,0.319 -0.209,0.552 a 3.1,3.1 0 0 0 -0.113,0.395 1.412,1.412 0 0 0 -0.032,0.263 0.405,0.405 0 0 0 0.193,0.39 1.424,1.424 0 0 0 0.644,0.106 v 0.385 h -2.61 v -0.385 a 2.816,2.816 0 0 0 0.424,-0.081 1.077,1.077 0 0 0 0.311,-0.142 0.913,0.913 0 0 0 0.236,-0.238 2.3,2.3 0 0 0 0.2,-0.359 l 2.793,-6.592 h 0.462 l 2.438,5.711 q 0.247,0.567 0.43,0.906 a 2.223,2.223 0 0 0 0.354,0.511 0.805,0.805 0 0 0 0.371,0.223 1.959,1.959 0 0 0 0.478,0.051 v 0.395 h -3.5 v -0.395 a 2.065,2.065 0 0 0 0.784,-0.1 0.345,0.345 0 0 0 0.215,-0.334 1.517,1.517 0 0 0 -0.011,-0.187 1.425,1.425 0 0 0 -0.038,-0.187 2.3,2.3 0 0 0 -0.075,-0.228 q -0.048,-0.127 -0.124,-0.3 z m -2.653,-0.506 h 2.449 l -1.192,-2.987 z m 13.515,3.433 a 4.661,4.661 0 0 1 -1.643,-0.273 3.544,3.544 0 0 1 -1.246,-0.775 3.327,3.327 0 0 1 -0.789,-1.22 4.463,4.463 0 0 1 -0.274,-1.6 4.529,4.529 0 0 1 0.3,-1.681 3.835,3.835 0 0 1 0.843,-1.306 3.737,3.737 0 0 1 1.3,-0.846 4.514,4.514 0 0 1 1.67,-0.3 4.172,4.172 0 0 1 1.214,0.172 5.951,5.951 0 0 1 1.235,0.557 l 0.226,-0.628 h 0.376 l -0.14,2.329 H -88.2 a 1.743,1.743 0 0 0 -0.2,-0.856 1.786,1.786 0 0 0 -0.521,-0.592 2.236,2.236 0 0 0 -0.736,-0.344 3.228,3.228 0 0 0 -0.843,-0.111 2.714,2.714 0 0 0 -1.171,0.243 2.368,2.368 0 0 0 -0.87,0.7 3.244,3.244 0 0 0 -0.542,1.114 5.423,5.423 0 0 0 -0.188,1.489 3.854,3.854 0 0 0 0.72,2.506 2.542,2.542 0 0 0 2.084,0.876 3.369,3.369 0 0 0 0.924,-0.116 2.328,2.328 0 0 0 0.693,-0.314 1.385,1.385 0 0 0 0.43,-0.456 1.091,1.091 0 0 0 0.145,-0.542 1,1 0 0 0 -0.252,-0.795 1.3,1.3 0 0 0 -0.822,-0.208 v -0.385 h 3.05 v 0.385 a 1.913,1.913 0 0 0 -0.43,0.041 0.541,0.541 0 0 0 -0.274,0.147 0.567,0.567 0 0 0 -0.14,0.278 2.1,2.1 0 0 0 -0.038,0.435 v 1.134 q -0.2,0 -0.371,0.015 a 1.741,1.741 0 0 0 -0.349,0.071 3.753,3.753 0 0 0 -0.4,0.152 q -0.22,0.1 -0.521,0.258 a 3.7,3.7 0 0 1 -0.865,0.324 4.425,4.425 0 0 1 -1.073,0.122 z m 10.977,-4.38 a 6.013,6.013 0 0 0 0.972,-0.066 1.752,1.752 0 0 0 0.623,-0.208 0.832,0.832 0 0 0 0.333,-0.365 1.255,1.255 0 0 0 0.1,-0.527 h 0.376 v 2.766 h -0.376 a 1.384,1.384 0 0 0 -0.091,-0.527 0.793,0.793 0 0 0 -0.322,-0.37 1.807,1.807 0 0 0 -0.623,-0.223 5.37,5.37 0 0 0 -0.994,-0.076 v 2.289 a 1.517,1.517 0 0 0 0.086,0.552 0.743,0.743 0 0 0 0.3,0.354 1.427,1.427 0 0 0 0.553,0.192 5.429,5.429 0 0 0 0.849,0.056 5.245,5.245 0 0 0 0.967,-0.076 1.763,1.763 0 0 0 0.666,-0.258 1.339,1.339 0 0 0 0.43,-0.481 3.115,3.115 0 0 0 0.269,-0.744 h 0.408 l -0.161,1.995 h -6.67 v -0.385 a 3.359,3.359 0 0 0 0.607,-0.061 0.746,0.746 0 0 0 0.36,-0.172 0.619,0.619 0 0 0 0.172,-0.344 3.152,3.152 0 0 0 0.043,-0.577 v -4.719 a 3.5,3.5 0 0 0 -0.038,-0.572 0.68,0.68 0 0 0 -0.156,-0.353 0.587,0.587 0 0 0 -0.328,-0.172 3.888,3.888 0 0 0 -0.559,-0.066 v -0.385 h 6.208 l 0.1,1.782 h -0.376 a 2,2 0 0 0 -0.209,-0.663 1.1,1.1 0 0 0 -0.4,-0.41 1.767,1.767 0 0 0 -0.639,-0.213 6.135,6.135 0 0 0 -0.934,-0.061 H -79.6 q -0.183,0 -0.183,0.172 z m 14.35,2.471 2.793,-5.985 h 2.406 v 0.385 a 1.95,1.95 0 0 0 -0.553,0.081 0.612,0.612 0 0 0 -0.322,0.238 1.064,1.064 0 0 0 -0.15,0.461 6.1,6.1 0 0 0 -0.038,0.749 v 3.97 a 5.816,5.816 0 0 0 0.043,0.8 0.98,0.98 0 0 0 0.167,0.456 0.584,0.584 0 0 0 0.354,0.213 3.36,3.36 0 0 0 0.607,0.061 v 0.385 h -3.48 V -11.2 a 3.025,3.025 0 0 0 0.606,-0.072 0.658,0.658 0 0 0 0.36,-0.208 0.856,0.856 0 0 0 0.172,-0.43 5.194,5.194 0 0 0 0.043,-0.754 v -4.7 h -0.107 l -3.136,6.643 h -0.236 l -3.083,-6.643 h -0.043 v 4.628 a 5.816,5.816 0 0 0 0.043,0.8 0.98,0.98 0 0 0 0.166,0.456 0.584,0.584 0 0 0 0.354,0.213 3.359,3.359 0 0 0 0.607,0.061 v 0.385 h -3 v -0.385 a 3.025,3.025 0 0 0 0.607,-0.066 0.658,0.658 0 0 0 0.36,-0.208 0.856,0.856 0 0 0 0.172,-0.43 5.194,5.194 0 0 0 0.043,-0.754 v -4.111 a 5.421,5.421 0 0 0 -0.038,-0.7 1,1 0 0 0 -0.15,-0.441 0.6,0.6 0 0 0 -0.328,-0.228 2.449,2.449 0 0 0 -0.559,-0.086 v -0.385 h 2.567 l 2.707,5.985 z M -53.4,-15.1 a 6.013,6.013 0 0 0 0.972,-0.066 1.752,1.752 0 0 0 0.623,-0.208 0.832,0.832 0 0 0 0.333,-0.365 1.255,1.255 0 0 0 0.1,-0.527 H -51 v 2.766 h -0.376 a 1.384,1.384 0 0 0 -0.091,-0.527 0.793,0.793 0 0 0 -0.322,-0.37 1.807,1.807 0 0 0 -0.623,-0.223 5.37,5.37 0 0 0 -0.988,-0.08 v 2.289 a 1.518,1.518 0 0 0 0.086,0.552 0.743,0.743 0 0 0 0.3,0.354 1.427,1.427 0 0 0 0.553,0.192 5.43,5.43 0 0 0 0.849,0.056 5.245,5.245 0 0 0 0.967,-0.076 1.763,1.763 0 0 0 0.666,-0.258 1.338,1.338 0 0 0 0.43,-0.481 3.115,3.115 0 0 0 0.269,-0.744 h 0.408 l -0.161,1.995 h -6.67 v -0.385 a 3.359,3.359 0 0 0 0.607,-0.061 0.746,0.746 0 0 0 0.36,-0.172 0.619,0.619 0 0 0 0.172,-0.344 3.149,3.149 0 0 0 0.043,-0.577 v -4.719 a 3.5,3.5 0 0 0 -0.038,-0.572 0.68,0.68 0 0 0 -0.15,-0.344 0.587,0.587 0 0 0 -0.328,-0.172 3.888,3.888 0 0 0 -0.559,-0.066 v -0.385 h 6.196 l 0.1,1.782 h -0.376 a 2,2 0 0 0 -0.209,-0.663 1.1,1.1 0 0 0 -0.4,-0.41 1.767,1.767 0 0 0 -0.639,-0.213 6.135,6.135 0 0 0 -0.934,-0.061 h -1.362 q -0.183,0 -0.183,0.172 z m 15.9,4.385 -5.1,-6.339 h -0.043 v 4.324 a 6.634,6.634 0 0 0 0.038,0.8 1.025,1.025 0 0 0 0.15,0.456 0.528,0.528 0 0 0 0.322,0.213 2.789,2.789 0 0 0 0.553,0.061 v 0.385 h -2.889 V -11.2 a 3.025,3.025 0 0 0 0.607,-0.066 0.658,0.658 0 0 0 0.36,-0.208 0.856,0.856 0 0 0 0.172,-0.43 5.2,5.2 0 0 0 0.043,-0.754 v -4.111 a 5.424,5.424 0 0 0 -0.038,-0.7 1,1 0 0 0 -0.15,-0.441 0.6,0.6 0 0 0 -0.328,-0.228 2.449,2.449 0 0 0 -0.559,-0.086 v -0.385 h 2.127 l 4.694,5.9 h 0.043 V -16.7 a 6.659,6.659 0 0 0 -0.038,-0.795 1.033,1.033 0 0 0 -0.15,-0.461 0.528,0.528 0 0 0 -0.322,-0.213 2.788,2.788 0 0 0 -0.553,-0.061 v -0.385 h 2.889 v 0.385 a 3.026,3.026 0 0 0 -0.607,0.066 0.658,0.658 0 0 0 -0.36,0.208 0.862,0.862 0 0 0 -0.172,0.435 5.21,5.21 0 0 0 -0.043,0.749 v 6.056 z m 14.114,-5.965 h -0.44 a 2.455,2.455 0 0 0 -0.15,-0.729 1.058,1.058 0 0 0 -0.338,-0.461 1.377,1.377 0 0 0 -0.553,-0.238 3.868,3.868 0 0 0 -0.795,-0.071 q -0.4,0 -0.639,0.015 a 1.651,1.651 0 0 0 -0.371,0.056 0.311,0.311 0 0 0 -0.167,0.1 0.258,0.258 0 0 0 -0.038,0.147 v 5.418 a 2.779,2.779 0 0 0 0.048,0.557 0.74,0.74 0 0 0 0.193,0.38 0.923,0.923 0 0 0 0.419,0.223 3.06,3.06 0 0 0 0.725,0.086 v 0.385 h -4.06 v -0.385 a 3.136,3.136 0 0 0 0.73,-0.086 0.926,0.926 0 0 0 0.424,-0.223 0.74,0.74 0 0 0 0.193,-0.38 2.778,2.778 0 0 0 0.048,-0.557 v -5.418 a 0.258,0.258 0 0 0 -0.038,-0.147 0.3,0.3 0 0 0 -0.15,-0.1 1.253,1.253 0 0 0 -0.317,-0.056 q -0.2,-0.015 -0.548,-0.015 -0.419,0 -0.779,0.03 a 1.529,1.529 0 0 0 -0.623,0.177 1.075,1.075 0 0 0 -0.424,0.451 1.9,1.9 0 0 0 -0.172,0.841 h -0.4 v -1.934 h 8.11 z"
         transform="translate(335.392,26.72)"
         fill="#161616"
         id="path833"
         style="fill:#ababab;fill-opacity:1" />
      <path
         d="m 7.783,-231.795 c -2.959,0 -5.214,-0.919 -6.7,-2.732 a 11.227,11.227 0 0 1 -2.206,-7.3 v -13.6 h 2.432 v 13.6 c 0,5.181 2.112,7.7 6.455,7.7 4.343,0 6.456,-2.518 6.456,-7.7 v -13.6 h 2.443 v 13.6 a 11.265,11.265 0 0 1 -2.19,7.31 c -1.474,1.8 -3.724,2.718 -6.687,2.718 z m -40.141,0 a 11.6,11.6 0 0 1 -8.393,-3.458 11.564,11.564 0 0 1 -3.528,-8.55 12.409,12.409 0 0 1 3.076,-8.521 10.166,10.166 0 0 1 7.9,-3.472 23.278,23.278 0 0 1 7.465,1.27 l 0.468,0.161 -0.7,2.2 -0.466,-0.146 a 22.8,22.8 0 0 0 -6.763,-1.1 7.522,7.522 0 0 0 -6.052,2.752 10.174,10.174 0 0 0 -2.372,6.808 9.468,9.468 0 0 0 2.754,6.836 8.937,8.937 0 0 0 6.605,2.816 14.951,14.951 0 0 0 5.927,-1.069 l 0.449,-0.195 0.832,1.927 -0.385,0.23 a 10.144,10.144 0 0 1 -3.138,1.12 18.225,18.225 0 0 1 -3.681,0.39 z m 29.306,-0.139 a 7.829,7.829 0 0 1 -3.179,-0.614 7.537,7.537 0 0 1 -2.339,-1.783 c -0.692,-0.751 -2.344,-2.979 -5.042,-6.8 -1.655,0 -3.2,-0.053 -4.589,-0.144 v 9.1 h -2.445 v -23.116 l 0.461,-0.034 c 1.91,-0.141 3.53,-0.218 4.816,-0.228 a 8.168,8.168 0 0 1 5.36,1.752 6.17,6.17 0 0 1 2.164,5.011 7.271,7.271 0 0 1 -1.222,4.054 10.611,10.611 0 0 1 -2.28,2.578 c 0.683,0.958 1.507,2.084 2.456,3.355 1.078,1.445 1.784,2.365 2.1,2.732 a 6.206,6.206 0 0 0 3.839,2.134 l 0.45,0.056 -0.055,1.957 z M -18.2,-243.52 c 1.412,0.082 2.744,0.124 3.968,0.124 a 3.617,3.617 0 0 0 2.457,-1.623 5.79,5.79 0 0 0 1.383,-3.84 3.807,3.807 0 0 0 -1.355,-3.209 6,6 0 0 0 -3.794,-1.113 l -0.01,-0.511 v 0.511 c -0.767,0 -1.656,0.03 -2.65,0.088 z m 57.611,11.345 v -23.246 h 2.444 v 20.859 h 9.87 v 2.388 z m -16.065,0 v -23.246 h 10.966 v 2.329 H 25.79 v 7.145 h 7.716 v 2.293 H 25.79 v 9.149 h 8.86 v 2.329 z"
         transform="translate(44.279,255.795)"
         fill="#161616"
         fill-rule="evenodd"
         id="path835"
         style="fill:#ababab;fill-opacity:1" />
    </g>
  </g>
</svg>
