<svg xmlns="http://www.w3.org/2000/svg" width="312" height="24" viewBox="0 0 312 24"><path d="M-215.175-16.685h-.44a2.454,2.454,0,0,0-.15-.729,1.058,1.058,0,0,0-.338-.461,1.377,1.377,0,0,0-.553-.238,3.868,3.868,0,0,0-.795-.071q-.4,0-.639.015a1.651,1.651,0,0,0-.371.056.311.311,0,0,0-.166.1.258.258,0,0,0-.038.147v5.418a2.778,2.778,0,0,0,.048.557.74.74,0,0,0,.193.38.923.923,0,0,0,.419.223,3.06,3.06,0,0,0,.725.086v.385h-4.06v-.385a3.136,3.136,0,0,0,.73-.086.926.926,0,0,0,.424-.223.74.74,0,0,0,.193-.38,2.781,2.781,0,0,0,.048-.557v-5.418a.258.258,0,0,0-.038-.147.3.3,0,0,0-.15-.1,1.253,1.253,0,0,0-.317-.056q-.2-.015-.548-.015-.419,0-.779.03a1.529,1.529,0,0,0-.623.177,1.075,1.075,0,0,0-.424.451,1.9,1.9,0,0,0-.172.841h-.4v-1.934h8.11Zm8.077,3.038h-2.868q-.183.415-.311.734t-.209.552a3.094,3.094,0,0,0-.113.395,1.41,1.41,0,0,0-.032.263.405.405,0,0,0,.193.39,1.424,1.424,0,0,0,.644.106v.385h-2.61v-.385a2.816,2.816,0,0,0,.424-.081,1.077,1.077,0,0,0,.311-.142.913.913,0,0,0,.236-.238,2.3,2.3,0,0,0,.2-.359l2.793-6.592h.462l2.438,5.711q.247.567.43.906a2.224,2.224,0,0,0,.355.511.805.805,0,0,0,.371.223,1.959,1.959,0,0,0,.478.051v.395h-3.5v-.395a2.065,2.065,0,0,0,.784-.1.345.345,0,0,0,.215-.334,1.516,1.516,0,0,0-.011-.187,1.424,1.424,0,0,0-.038-.187,2.3,2.3,0,0,0-.075-.228q-.048-.127-.124-.3Zm-2.653-.506h2.449l-1.192-2.987Zm16.563,3.332h-6.939v-.385a3.359,3.359,0,0,0,.607-.061.746.746,0,0,0,.36-.172.619.619,0,0,0,.172-.344,3.149,3.149,0,0,0,.043-.577v-4.719a3.492,3.492,0,0,0-.038-.572.679.679,0,0,0-.15-.344.587.587,0,0,0-.328-.172,3.888,3.888,0,0,0-.559-.066v-.385h3.265v.385a2.788,2.788,0,0,0-.553.061.593.593,0,0,0-.322.182.728.728,0,0,0-.15.365,4.039,4.039,0,0,0-.038.618v4.365a2.2,2.2,0,0,0,.091.694.787.787,0,0,0,.312.415,1.443,1.443,0,0,0,.585.2,6.31,6.31,0,0,0,.924.056,6.8,6.8,0,0,0,1.031-.066,2,2,0,0,0,.7-.233,1.214,1.214,0,0,0,.451-.466,3.185,3.185,0,0,0,.285-.775h.408Zm6.617-4.284a6.013,6.013,0,0,0,.972-.066,1.752,1.752,0,0,0,.623-.208.831.831,0,0,0,.333-.365,1.255,1.255,0,0,0,.1-.527h.376V-13.5h-.376a1.384,1.384,0,0,0-.091-.527.793.793,0,0,0-.322-.37,1.808,1.808,0,0,0-.623-.223,5.37,5.37,0,0,0-.994-.076v2.289a1.518,1.518,0,0,0,.086.552.743.743,0,0,0,.3.354,1.427,1.427,0,0,0,.553.192,5.429,5.429,0,0,0,.849.056,5.245,5.245,0,0,0,.967-.076,1.763,1.763,0,0,0,.666-.258,1.338,1.338,0,0,0,.43-.481,3.113,3.113,0,0,0,.269-.744h.408l-.161,1.995h-6.67v-.385a3.36,3.36,0,0,0,.607-.061.746.746,0,0,0,.36-.172.619.619,0,0,0,.172-.344,3.149,3.149,0,0,0,.043-.577v-4.719a3.492,3.492,0,0,0-.038-.572.68.68,0,0,0-.15-.344.587.587,0,0,0-.328-.172,3.888,3.888,0,0,0-.559-.066v-.385h6.208l.1,1.782h-.376a2,2,0,0,0-.209-.663,1.1,1.1,0,0,0-.4-.41,1.767,1.767,0,0,0-.639-.213,6.135,6.135,0,0,0-.934-.061h-1.364q-.183,0-.183.172Zm15.9,4.385-5.1-6.339h-.043v4.324a6.638,6.638,0,0,0,.038.8,1.025,1.025,0,0,0,.15.456.528.528,0,0,0,.322.213,2.789,2.789,0,0,0,.553.061v.385h-2.889v-.385a3.025,3.025,0,0,0,.607-.066.658.658,0,0,0,.36-.208.856.856,0,0,0,.172-.43,5.2,5.2,0,0,0,.043-.754v-4.111a5.424,5.424,0,0,0-.038-.7,1,1,0,0,0-.15-.441.6.6,0,0,0-.328-.228,2.449,2.449,0,0,0-.559-.086v-.385h2.127l4.694,5.9h.043V-16.7a6.66,6.66,0,0,0-.038-.795,1.033,1.033,0,0,0-.15-.461.528.528,0,0,0-.322-.213,2.788,2.788,0,0,0-.553-.061v-.385h2.889v.385a3.026,3.026,0,0,0-.607.066.658.658,0,0,0-.36.208.863.863,0,0,0-.172.435,5.214,5.214,0,0,0-.043.749v6.056Zm14.114-5.965H-157a2.455,2.455,0,0,0-.15-.729,1.058,1.058,0,0,0-.338-.461,1.377,1.377,0,0,0-.553-.238,3.868,3.868,0,0,0-.795-.071q-.4,0-.639.015a1.65,1.65,0,0,0-.371.056.311.311,0,0,0-.166.1.258.258,0,0,0-.038.147v5.418a2.779,2.779,0,0,0,.048.557.74.74,0,0,0,.193.38.923.923,0,0,0,.419.223,3.06,3.06,0,0,0,.725.086v.385h-4.06v-.385a3.136,3.136,0,0,0,.73-.086.926.926,0,0,0,.424-.223.74.74,0,0,0,.193-.38,2.779,2.779,0,0,0,.048-.557v-5.418a.258.258,0,0,0-.038-.147.3.3,0,0,0-.15-.1,1.253,1.253,0,0,0-.317-.056q-.2-.015-.548-.015-.419,0-.779.03a1.529,1.529,0,0,0-.623.177,1.075,1.075,0,0,0-.424.451,1.9,1.9,0,0,0-.172.841h-.4v-1.934h8.11Zm15.725,4.051,2.793-5.985h2.406v.385a1.95,1.95,0,0,0-.553.081.611.611,0,0,0-.322.238,1.064,1.064,0,0,0-.15.461,6.1,6.1,0,0,0-.038.749v3.97a5.815,5.815,0,0,0,.043.8.98.98,0,0,0,.166.456.584.584,0,0,0,.354.213,3.359,3.359,0,0,0,.607.061v.385h-3.48v-.385a3.025,3.025,0,0,0,.607-.066.658.658,0,0,0,.36-.208.856.856,0,0,0,.172-.43,5.2,5.2,0,0,0,.043-.754v-4.7h-.107l-3.136,6.643h-.236l-3.083-6.643h-.043v4.628a5.81,5.81,0,0,0,.043.8.98.98,0,0,0,.166.456.585.585,0,0,0,.354.213,3.359,3.359,0,0,0,.607.061v.385h-3v-.385a3.025,3.025,0,0,0,.607-.066.658.658,0,0,0,.36-.208.856.856,0,0,0,.172-.43,5.2,5.2,0,0,0,.043-.754v-4.111a5.421,5.421,0,0,0-.038-.7,1,1,0,0,0-.15-.441.6.6,0,0,0-.328-.228,2.449,2.449,0,0,0-.559-.086v-.385h2.567l2.707,5.985Zm14.479-1.013h-2.868q-.183.415-.311.734t-.209.552a3.09,3.09,0,0,0-.113.395,1.412,1.412,0,0,0-.032.263.405.405,0,0,0,.193.39,1.424,1.424,0,0,0,.644.106v.385h-2.61v-.385a2.816,2.816,0,0,0,.424-.081,1.077,1.077,0,0,0,.311-.142.913.913,0,0,0,.236-.238,2.3,2.3,0,0,0,.2-.359l2.793-6.592h.462l2.438,5.711q.247.567.43.906a2.224,2.224,0,0,0,.354.511.805.805,0,0,0,.371.223,1.959,1.959,0,0,0,.478.051v.395h-3.5v-.395a2.065,2.065,0,0,0,.784-.1.345.345,0,0,0,.215-.334,1.522,1.522,0,0,0-.011-.187,1.43,1.43,0,0,0-.038-.187,2.307,2.307,0,0,0-.075-.228q-.048-.127-.124-.3Zm-2.653-.506h2.449l-1.192-2.987Zm16.6,3.433-5.1-6.339h-.043v4.324a6.636,6.636,0,0,0,.038.8,1.025,1.025,0,0,0,.15.456.528.528,0,0,0,.322.213,2.788,2.788,0,0,0,.553.061v.385h-2.889v-.385a3.025,3.025,0,0,0,.607-.066.658.658,0,0,0,.36-.208.856.856,0,0,0,.172-.43,5.2,5.2,0,0,0,.043-.754v-4.111a5.422,5.422,0,0,0-.038-.7,1,1,0,0,0-.15-.441.6.6,0,0,0-.328-.228,2.449,2.449,0,0,0-.559-.086v-.385h2.127l4.694,5.9h.043V-16.7a6.657,6.657,0,0,0-.038-.795,1.033,1.033,0,0,0-.15-.461.528.528,0,0,0-.322-.213,2.788,2.788,0,0,0-.553-.061v-.385h2.889v.385a3.026,3.026,0,0,0-.607.066.658.658,0,0,0-.36.208.863.863,0,0,0-.172.435,5.212,5.212,0,0,0-.043.749v6.056Zm10.784-2.927H-104.5q-.183.415-.312.734t-.209.552a3.1,3.1,0,0,0-.113.395,1.412,1.412,0,0,0-.032.263.405.405,0,0,0,.193.39,1.424,1.424,0,0,0,.644.106v.385h-2.61v-.385a2.816,2.816,0,0,0,.424-.081,1.077,1.077,0,0,0,.311-.142.913.913,0,0,0,.236-.238,2.3,2.3,0,0,0,.2-.359l2.793-6.592h.462l2.438,5.711q.247.567.43.906a2.223,2.223,0,0,0,.354.511.805.805,0,0,0,.371.223,1.959,1.959,0,0,0,.478.051v.395h-3.5v-.395a2.065,2.065,0,0,0,.784-.1.345.345,0,0,0,.215-.334,1.517,1.517,0,0,0-.011-.187,1.425,1.425,0,0,0-.038-.187,2.3,2.3,0,0,0-.075-.228q-.048-.127-.124-.3Zm-2.653-.506h2.449l-1.192-2.987ZM-90.76-10.72a4.661,4.661,0,0,1-1.643-.273,3.544,3.544,0,0,1-1.246-.775,3.327,3.327,0,0,1-.789-1.22,4.463,4.463,0,0,1-.274-1.6,4.529,4.529,0,0,1,.3-1.681,3.835,3.835,0,0,1,.843-1.306,3.737,3.737,0,0,1,1.3-.846,4.514,4.514,0,0,1,1.67-.3,4.172,4.172,0,0,1,1.214.172,5.951,5.951,0,0,1,1.235.557l.226-.628h.376l-.14,2.329H-88.2a1.743,1.743,0,0,0-.2-.856,1.786,1.786,0,0,0-.521-.592,2.236,2.236,0,0,0-.736-.344,3.228,3.228,0,0,0-.843-.111,2.714,2.714,0,0,0-1.171.243,2.368,2.368,0,0,0-.87.7,3.244,3.244,0,0,0-.542,1.114,5.423,5.423,0,0,0-.188,1.489,3.854,3.854,0,0,0,.72,2.506,2.542,2.542,0,0,0,2.084.876,3.369,3.369,0,0,0,.924-.116,2.328,2.328,0,0,0,.693-.314,1.385,1.385,0,0,0,.43-.456,1.091,1.091,0,0,0,.145-.542,1,1,0,0,0-.252-.795,1.3,1.3,0,0,0-.822-.208v-.385h3.05v.385a1.913,1.913,0,0,0-.43.041.541.541,0,0,0-.274.147.567.567,0,0,0-.14.278,2.1,2.1,0,0,0-.038.435v1.134q-.2,0-.371.015a1.741,1.741,0,0,0-.349.071,3.753,3.753,0,0,0-.4.152q-.22.1-.521.258a3.7,3.7,0,0,1-.865.324A4.425,4.425,0,0,1-90.76-10.72ZM-79.783-15.1a6.013,6.013,0,0,0,.972-.066,1.752,1.752,0,0,0,.623-.208.832.832,0,0,0,.333-.365,1.255,1.255,0,0,0,.1-.527h.376V-13.5h-.376a1.384,1.384,0,0,0-.091-.527.793.793,0,0,0-.322-.37,1.807,1.807,0,0,0-.623-.223,5.37,5.37,0,0,0-.994-.076v2.289a1.517,1.517,0,0,0,.086.552.743.743,0,0,0,.3.354,1.427,1.427,0,0,0,.553.192,5.429,5.429,0,0,0,.849.056,5.245,5.245,0,0,0,.967-.076,1.763,1.763,0,0,0,.666-.258,1.339,1.339,0,0,0,.43-.481,3.115,3.115,0,0,0,.269-.744h.408l-.161,1.995h-6.67v-.385a3.359,3.359,0,0,0,.607-.061.746.746,0,0,0,.36-.172.619.619,0,0,0,.172-.344,3.152,3.152,0,0,0,.043-.577v-4.719a3.5,3.5,0,0,0-.038-.572A.68.68,0,0,0-81.1-18a.587.587,0,0,0-.328-.172,3.888,3.888,0,0,0-.559-.066v-.385h6.208l.1,1.782h-.376a2,2,0,0,0-.209-.663,1.1,1.1,0,0,0-.4-.41,1.767,1.767,0,0,0-.639-.213,6.135,6.135,0,0,0-.934-.061H-79.6q-.183,0-.183.172Zm14.35,2.471,2.793-5.985h2.406v.385a1.95,1.95,0,0,0-.553.081.612.612,0,0,0-.322.238,1.064,1.064,0,0,0-.15.461,6.1,6.1,0,0,0-.038.749v3.97a5.816,5.816,0,0,0,.043.8.98.98,0,0,0,.167.456.584.584,0,0,0,.354.213,3.36,3.36,0,0,0,.607.061v.385h-3.48v-.385A3.025,3.025,0,0,0-63-11.272a.658.658,0,0,0,.36-.208.856.856,0,0,0,.172-.43,5.194,5.194,0,0,0,.043-.754v-4.7h-.107l-3.136,6.643h-.236l-3.083-6.643h-.043v4.628a5.816,5.816,0,0,0,.043.8.98.98,0,0,0,.166.456.584.584,0,0,0,.354.213,3.359,3.359,0,0,0,.607.061v.385h-3v-.385a3.025,3.025,0,0,0,.607-.066.658.658,0,0,0,.36-.208.856.856,0,0,0,.172-.43,5.194,5.194,0,0,0,.043-.754v-4.111a5.421,5.421,0,0,0-.038-.7,1,1,0,0,0-.15-.441.6.6,0,0,0-.328-.228,2.449,2.449,0,0,0-.559-.086v-.385h2.567l2.707,5.985ZM-53.4-15.1a6.013,6.013,0,0,0,.972-.066,1.752,1.752,0,0,0,.623-.208.832.832,0,0,0,.333-.365,1.255,1.255,0,0,0,.1-.527H-51V-13.5h-.376a1.384,1.384,0,0,0-.091-.527.793.793,0,0,0-.322-.37,1.807,1.807,0,0,0-.623-.223A5.37,5.37,0,0,0-53.4-14.7v2.289a1.518,1.518,0,0,0,.086.552.743.743,0,0,0,.3.354,1.427,1.427,0,0,0,.553.192,5.43,5.43,0,0,0,.849.056,5.245,5.245,0,0,0,.967-.076,1.763,1.763,0,0,0,.666-.258,1.338,1.338,0,0,0,.43-.481,3.115,3.115,0,0,0,.269-.744h.408l-.161,1.995h-6.67v-.385a3.359,3.359,0,0,0,.607-.061.746.746,0,0,0,.36-.172.619.619,0,0,0,.172-.344,3.149,3.149,0,0,0,.043-.577v-4.719a3.5,3.5,0,0,0-.038-.572.68.68,0,0,0-.15-.344.587.587,0,0,0-.328-.172,3.888,3.888,0,0,0-.559-.066v-.385H-49.4l.1,1.782h-.376a2,2,0,0,0-.209-.663,1.1,1.1,0,0,0-.4-.41,1.767,1.767,0,0,0-.639-.213,6.135,6.135,0,0,0-.934-.061H-53.22q-.183,0-.183.172Zm15.9,4.385-5.1-6.339h-.043v4.324a6.634,6.634,0,0,0,.038.8,1.025,1.025,0,0,0,.15.456.528.528,0,0,0,.322.213,2.789,2.789,0,0,0,.553.061v.385h-2.889v-.385a3.025,3.025,0,0,0,.607-.066.658.658,0,0,0,.36-.208.856.856,0,0,0,.172-.43,5.2,5.2,0,0,0,.043-.754v-4.111a5.424,5.424,0,0,0-.038-.7,1,1,0,0,0-.15-.441.6.6,0,0,0-.328-.228,2.449,2.449,0,0,0-.559-.086v-.385h2.127l4.694,5.9h.043V-16.7a6.659,6.659,0,0,0-.038-.795,1.033,1.033,0,0,0-.15-.461.528.528,0,0,0-.322-.213,2.788,2.788,0,0,0-.553-.061v-.385h2.889v.385a3.026,3.026,0,0,0-.607.066.658.658,0,0,0-.36.208.862.862,0,0,0-.172.435,5.21,5.21,0,0,0-.043.749v6.056Zm14.114-5.965h-.44a2.455,2.455,0,0,0-.15-.729,1.058,1.058,0,0,0-.338-.461,1.377,1.377,0,0,0-.553-.238,3.868,3.868,0,0,0-.795-.071q-.4,0-.639.015a1.651,1.651,0,0,0-.371.056.311.311,0,0,0-.167.1.258.258,0,0,0-.038.147v5.418a2.779,2.779,0,0,0,.048.557.74.74,0,0,0,.193.38.923.923,0,0,0,.419.223,3.06,3.06,0,0,0,.725.086v.385h-4.06v-.385a3.136,3.136,0,0,0,.73-.086.926.926,0,0,0,.424-.223.74.74,0,0,0,.193-.38,2.778,2.778,0,0,0,.048-.557v-5.418a.258.258,0,0,0-.038-.147.3.3,0,0,0-.15-.1,1.253,1.253,0,0,0-.317-.056q-.2-.015-.548-.015-.419,0-.779.03a1.529,1.529,0,0,0-.623.177,1.075,1.075,0,0,0-.424.451,1.9,1.9,0,0,0-.172.841h-.4v-1.934h8.11Z" transform="translate(335.392 26.72)" fill="#161616"/><path d="M7.783-231.795c-2.959,0-5.214-.919-6.7-2.732a11.227,11.227,0,0,1-2.206-7.3v-13.6H1.309v13.6c0,5.181,2.112,7.7,6.455,7.7s6.456-2.518,6.456-7.7v-13.6h2.443v13.6a11.265,11.265,0,0,1-2.19,7.31c-1.474,1.8-3.724,2.718-6.687,2.718Zm-40.141,0a11.6,11.6,0,0,1-8.393-3.458,11.564,11.564,0,0,1-3.528-8.55,12.409,12.409,0,0,1,3.076-8.521,10.166,10.166,0,0,1,7.9-3.472,23.278,23.278,0,0,1,7.465,1.27l.468.161-.7,2.2-.466-.146a22.8,22.8,0,0,0-6.763-1.1,7.522,7.522,0,0,0-6.052,2.752,10.174,10.174,0,0,0-2.372,6.808,9.468,9.468,0,0,0,2.754,6.836,8.937,8.937,0,0,0,6.605,2.816,14.951,14.951,0,0,0,5.927-1.069l.449-.195.832,1.927-.385.23a10.144,10.144,0,0,1-3.138,1.12,18.225,18.225,0,0,1-3.681.39Zm29.306-.139a7.829,7.829,0,0,1-3.179-.614,7.537,7.537,0,0,1-2.339-1.783c-.692-.751-2.344-2.979-5.042-6.8-1.655,0-3.2-.053-4.589-.144v9.1h-2.445v-23.116l.461-.034c1.91-.141,3.53-.218,4.816-.228a8.168,8.168,0,0,1,5.36,1.752,6.17,6.17,0,0,1,2.164,5.011,7.271,7.271,0,0,1-1.222,4.054,10.611,10.611,0,0,1-2.28,2.578c.683.958,1.507,2.084,2.456,3.355,1.078,1.445,1.784,2.365,2.1,2.732a6.206,6.206,0,0,0,3.839,2.134l.45.056-.055,1.957ZM-18.2-243.52c1.412.082,2.744.124,3.968.124a3.617,3.617,0,0,0,2.457-1.623,5.79,5.79,0,0,0,1.383-3.84,3.807,3.807,0,0,0-1.355-3.209,6,6,0,0,0-3.794-1.113l-.01-.511v.511c-.767,0-1.656.03-2.65.088Zm57.611,11.345v-23.246h2.444v20.859h9.87v2.388Zm-16.065,0v-23.246H34.312v2.329H25.79v7.145h7.716v2.293H25.79v9.149h8.86v2.329Z" transform="translate(44.279 255.795)" fill="#161616" fill-rule="evenodd"/></svg>