<svg xmlns="http://www.w3.org/2000/svg" width="20" height="20" viewBox="0 0 20 20"><rect width="20" height="20" fill="none"/><path d="M14.59,14.59a4.784,4.784,0,0,1-3.4,1.41H4.815A4.815,4.815,0,0,1,0,11.185V4.815A4.815,4.815,0,0,1,4.815,0h6.37A4.815,4.815,0,0,1,16,4.815v6.37A4.784,4.784,0,0,1,14.59,14.59Zm.09-9.774a3.5,3.5,0,0,0-3.494-3.494H4.815A3.5,3.5,0,0,0,1.321,4.815v6.37a3.5,3.5,0,0,0,3.494,3.494h6.37a3.5,3.5,0,0,0,3.494-3.494Zm-2.473-.238a.784.784,0,1,1,.784-.784A.784.784,0,0,1,12.206,4.578ZM8,12.082A4.082,4.082,0,1,1,12.082,8,4.087,4.087,0,0,1,8,12.082ZM8,5.238A2.762,2.762,0,1,0,10.762,8,2.766,2.766,0,0,0,8,5.238Z" transform="translate(2 2)" fill="#616161" fill-rule="evenodd"/></svg>