<svg xmlns="http://www.w3.org/2000/svg" width="20" height="20" viewBox="0 0 20 20"><rect width="20" height="20" fill="none"/><path d="M12.438,14.4V9.161c0-1.074-.33-2.149-1.669-2.149a1.929,1.929,0,0,0-1.9,2.176V14.4H5.3V4.807H8.87V6.1A3.7,3.7,0,0,1,12.108,4.5C13.59,4.5,16,5.158,16,8.946V14.4ZM2,3.385A1.861,1.861,0,0,1,0,1.693,1.862,1.862,0,0,1,2,0a1.863,1.863,0,0,1,2,1.693A1.862,1.862,0,0,1,2,3.385ZM3.778,14.4H.2V4.807H3.778Z" transform="translate(2 3)" fill="#616161" fill-rule="evenodd"/></svg>