<svg xmlns="http://www.w3.org/2000/svg" width="20" height="20" viewBox="0 0 20 20"><rect width="20" height="20" fill="none"/><path d="M10.883,0a3.4,3.4,0,0,1,2.594,1.015A5.367,5.367,0,0,0,15.159.452l.408-.22A3.231,3.231,0,0,1,14.5,1.75a1.579,1.579,0,0,1-.36.252V2.01A6.226,6.226,0,0,0,16,1.514v.008a5.251,5.251,0,0,1-1.113,1.259l-.513.4a9.131,9.131,0,0,1-.152,2.078,9.092,9.092,0,0,1-6.43,7.154,9.973,9.973,0,0,1-4.645.189,12.112,12.112,0,0,1-1.93-.622,7.769,7.769,0,0,1-.929-.472L0,11.335a5.429,5.429,0,0,0,1.049.04c.323-.052.639-.038.937-.1a6.8,6.8,0,0,0,1.97-.7A3.676,3.676,0,0,0,4.845,10a2.807,2.807,0,0,1-.977-.173,3.273,3.273,0,0,1-2.082-2.07c.322.034,1.249.117,1.466-.063a2.432,2.432,0,0,1-1.073-.425A3.1,3.1,0,0,1,.633,4.5l.336.157a3.6,3.6,0,0,0,.689.19,1.013,1.013,0,0,0,.449.039H2.09c-.166-.19-.435-.316-.6-.52A3.272,3.272,0,0,1,.753,1.428,3.717,3.717,0,0,1,1.1.586l.016.007a1.992,1.992,0,0,0,.3.339,5.988,5.988,0,0,0,.977.92A9.731,9.731,0,0,0,6.406,3.765a6.335,6.335,0,0,0,1.474.19A2.963,2.963,0,0,1,7.9,2.435,3.2,3.2,0,0,1,9.754.263a3.957,3.957,0,0,1,.729-.22Z" transform="translate(2 4.005)" fill="#616161" fill-rule="evenodd"/></svg>