<svg xmlns="http://www.w3.org/2000/svg" width="24" height="24" viewBox="0 0 24 24"><rect width="24" height="24" fill="none"/><path d="M9.8,11.853a.921.921,0,0,1,0-1.236l3.437-3.689H.81a.876.876,0,0,1,0-1.747H13.232L9.8,1.493A.92.92,0,0,1,9.8.258.776.776,0,0,1,10.89.2a.731.731,0,0,1,.056.055l4.821,5.173.047.056h0a.247.247,0,0,1,.026.031v.007l.01.012h0l.01.014v.01l.006,0,.007.012v.016l.01.014A.91.91,0,0,1,16,6.052a.9.9,0,0,1-.114.444l-.01.016v.016l-.007.012-.006,0v.01l-.01.012h0l-.01.012v.006l-.026.031h0l-.047.054-4.821,5.175S10.114,12.193,9.8,11.853Z" transform="translate(4.001 5.997)" fill="#fff" fill-rule="evenodd"/></svg>