<svg id="icon-files" xmlns="http://www.w3.org/2000/svg" width="48" height="48" viewBox="0 0 48 48">
  <rect id="Rectangle_1701" data-name="Rectangle 1701" width="48" height="48" fill="none"/>
  <g id="_02" data-name="02" transform="translate(-565.501 -77.427)">
    <path id="Tracé_1245" data-name="Tracé 1245" d="M705.026,152.476h-9.319a1.332,1.332,0,0,0,0,2.663h9.319a1.332,1.332,0,0,0,0-2.663Z" transform="translate(-108.882 -64.695)" fill="#d0d0d0"/>
    <path id="Tracé_1246" data-name="Tracé 1246" d="M639.406,196.5H621.65a1.332,1.332,0,0,0,0,2.663h17.755a1.332,1.332,0,0,0,0-2.663Z" transform="translate(-43.261 -103.687)" fill="#d0d0d0"/>
    <path id="Tracé_1247" data-name="Tracé 1247" d="M639.406,240.531H621.65a1.332,1.332,0,0,0,0,2.663h17.755a1.332,1.332,0,0,0,0-2.663Z" transform="translate(-43.261 -142.679)" fill="#d0d0d0"/>
    <path id="Tracé_1248" data-name="Tracé 1248" d="M639.406,284.56H621.65a1.331,1.331,0,0,0,0,2.663h17.755a1.331,1.331,0,0,0,0-2.663Z" transform="translate(-43.261 -181.673)" fill="#d0d0d0"/>
    <path id="Tracé_1249" data-name="Tracé 1249" d="M639.406,328.587H621.65a1.332,1.332,0,0,0,0,2.663h17.755a1.332,1.332,0,0,0,0-2.663Z" transform="translate(-43.261 -220.664)" fill="#d0d0d0"/>
    <path id="Tracé_1250" data-name="Tracé 1250" d="M603.808,83.914h-.776v-.779a3.7,3.7,0,0,0-3.693-3.708H581.482L571.5,89.448v25.785a3.7,3.7,0,0,0,3.693,3.708h.776v.779a3.7,3.7,0,0,0,3.693,3.708h24.145a3.7,3.7,0,0,0,3.693-3.708v-32.1A3.7,3.7,0,0,0,603.808,83.914Zm-23.1.059v4.695h-4.676Zm-6.552,31.259v-23.9h7.878A1.329,1.329,0,0,0,583.358,90V82.09h15.982a1.044,1.044,0,0,1,1.04,1.045v32.1a1.044,1.044,0,0,1-1.04,1.045H575.194A1.044,1.044,0,0,1,574.154,115.232Zm30.7,4.487a1.044,1.044,0,0,1-1.04,1.045H579.663a1.044,1.044,0,0,1-1.04-1.045v-.779h20.717a3.7,3.7,0,0,0,3.693-3.708V86.577h.776a1.044,1.044,0,0,1,1.04,1.045Z" fill="#d0d0d0"/>
  </g>
</svg>
