<svg xmlns="http://www.w3.org/2000/svg" width="24" height="24" viewBox="0 0 24 24">
  <g id="icon-thumbs" transform="translate(-1532 -268)">
    <rect id="Rectangle_1678" data-name="Rectangle 1678" width="24" height="24" transform="translate(1532 268)" fill="none"/>
    <path id="Union_2" data-name="Union 2" d="M143-4069v-5h5v3a2,2,0,0,1-2,2Zm-7.5,0v-5h5v5Zm-5.5,0a2,2,0,0,1-2-2v-3h5v5Zm13-7.5v-5h5v5Zm-7.5,0v-5h5v5Zm-7.5,0v-5h5v5Zm15-7.5v-5h3a2,2,0,0,1,2,2v3Zm-7.5,0v-5h5v5Zm-7.5,0v-3a2,2,0,0,1,2-2h3v5Z" transform="translate(1406.001 4359)" fill="#616161"/>
  </g>
</svg>
