<svg xmlns="http://www.w3.org/2000/svg" width="24" height="24" viewBox="0 0 24 24"><rect width="24" height="24" fill="none"/><path d="M0,10.629A1.386,1.386,0,0,0,1.4,12h14a1.386,1.386,0,0,0,1.4-1.371V1.371A1.386,1.386,0,0,0,15.4,0H1.4A1.386,1.386,0,0,0,0,1.371ZM5.152,6.01,1.95,2.853a.657.657,0,0,1,0-.943.689.689,0,0,1,.962,0L8.022,6.922a.546.546,0,0,0,.749,0L13.888,1.91a.69.69,0,0,1,.963,0,.657.657,0,0,1,0,.943L11.644,6.01,14.85,9.147a.657.657,0,0,1,0,.943.692.692,0,0,1-.963,0l-3.2-3.134s-1,1-1.183,1.176a1.6,1.6,0,0,1-1.1.438,1.579,1.579,0,0,1-1.11-.449C7.1,7.944,6.111,6.957,6.111,6.957l-3.2,3.134a.69.69,0,0,1-.962,0,.657.657,0,0,1,0-.943Z" transform="translate(4 6)" fill="#f5f5f5" fill-rule="evenodd"/></svg>