<svg xmlns="http://www.w3.org/2000/svg" width="24" height="24" viewBox="0 0 24 24"><rect width="24" height="24" fill="none"/><path d="M-6.492,26.018a1.21,1.21,0,0,1-.867-.363l-2.86-2.863a9.368,9.368,0,0,1-5.71,1.946,9.367,9.367,0,0,1-5.99-2.17,9.375,9.375,0,0,1-1.2-13.183,9.334,9.334,0,0,1,7.191-3.367A9.362,9.362,0,0,1-9.939,8.19,9.376,9.376,0,0,1-8.507,21.077l2.865,2.863a1.212,1.212,0,0,1,.363.874,1.211,1.211,0,0,1-.363.856A1.209,1.209,0,0,1-6.492,26.018ZM-15.93,8.42a6.947,6.947,0,0,0-6.938,6.939,6.9,6.9,0,0,0,2.03,4.909A6.894,6.894,0,0,0-15.932,22.3a6.844,6.844,0,0,0,4.9-2.031A6.892,6.892,0,0,0-9,15.362a6.893,6.893,0,0,0-2.03-4.909A6.888,6.888,0,0,0-15.93,8.42Z" transform="translate(27.28 -4.018)" fill="#616161" fill-rule="evenodd"/></svg>