<svg xmlns="http://www.w3.org/2000/svg" width="24" height="24" viewBox="0 0 24 24"><rect width="24" height="24"
                                                                                         fill="none"/><path
        d="M17.636,14.151a1.013,1.013,0,0,1-1.326,0,.786.786,0,0,1,0-1.194,5.222,5.222,0,0,0,0-7.922.786.786,0,0,1,0-1.194,1.013,1.013,0,0,1,1.326,0A6.918,6.918,0,0,1,20,9,6.92,6.92,0,0,1,17.636,14.151Zm-2.955-2.133a1,1,0,0,1-.6.2.981.981,0,0,1-.719-.3.787.787,0,0,1,.116-1.189,2.1,2.1,0,0,0,0-3.45.787.787,0,0,1-.116-1.189.981.981,0,0,1,.719-.3,1,1,0,0,1,.6.2A3.788,3.788,0,0,1,16.25,9,3.786,3.786,0,0,1,14.681,12.018ZM10,18H8.75L4.375,14.062H1.25A1.192,1.192,0,0,1,0,12.937V5.062A1.193,1.193,0,0,1,1.25,3.937H4.375L8.75,0H10a1.193,1.193,0,0,1,1.25,1.125v15.75A1.193,1.193,0,0,1,10,18ZM9.375,1.824l-4.223,3.8H1.875v6.75H5.152l4.223,3.8Z" transform="translate(2 3)" fill="#000" fill-rule="evenodd"/></svg>
