<svg xmlns="http://www.w3.org/2000/svg" width="24" height="24" viewBox="0 0 24 24"><rect width="24" height="24" fill="none"/><path d="M10761.75-2122l-4.375-3.937h-3.125a1.194,1.194,0,0,1-1.249-1.127v-7.873a1.192,1.192,0,0,1,1.249-1.125h3.125l4.375-3.939H10763a1.2,1.2,0,0,1,1.252,1.127v15.749A1.192,1.192,0,0,1,10763-2122Zm-6.876-5.624h3.277l4.223,3.8v-14.351l-4.223,3.8h-3.277Zm16.982-.538-2.355-2.357-2.357,2.357a.555.555,0,0,1-.784,0l-.2-.2a.556.556,0,0,1,0-.784l2.355-2.357-2.355-2.355a.556.556,0,0,1,0-.784l.2-.2a.555.555,0,0,1,.784,0l2.357,2.355,2.355-2.355a.555.555,0,0,1,.784,0l.2.2a.556.556,0,0,1,0,.784l-2.355,2.355,2.355,2.357a.556.556,0,0,1,0,.784l-.2.2a.553.553,0,0,1-.393.162A.553.553,0,0,1,10771.856-2128.162Z" transform="translate(-10751 2143)" fill="#616161"/></svg>